<svg width="40" height="40" viewBox="0 0 40 40" fill="none" xmlns="http://www.w3.org/2000/svg">
<path fill-rule="evenodd" clip-rule="evenodd" d="M29.1691 2.6673C27.2179 1.85911 25.3238 2.36353 23.9766 3.55405C22.6606 4.71694 21.8565 6.5257 21.8565 8.44744V10.0234C21.8565 14.7549 25.6922 18.5905 30.4237 18.5905H31.9996C33.9213 18.5905 35.7301 17.7864 36.893 16.4704C38.0835 15.1232 38.5879 13.2291 37.7797 11.278C36.9802 9.34763 35.8082 7.59367 34.3308 6.11625C32.8534 4.63883 31.0994 3.46687 29.1691 2.6673ZM24.3043 8.44744C24.3043 7.18394 24.8389 6.05853 25.5974 5.38828C26.3246 4.74566 27.2407 4.51799 28.2323 4.92874C29.8657 5.6053 31.3498 6.59695 32.5999 7.84708C33.8501 9.09721 34.8417 10.5813 35.5183 12.2147C35.929 13.2063 35.7014 14.1224 35.0588 14.8496C34.3885 15.6081 33.2631 16.1428 31.9996 16.1428H30.4237C27.044 16.1428 24.3043 13.403 24.3043 10.0234V8.44744Z" fill="white"/>
<path fill-rule="evenodd" clip-rule="evenodd" d="M19.4087 10.8393C19.4087 8.45784 17.3906 6.13004 14.6782 6.74296C12.7849 7.17077 10.976 7.94367 9.3455 9.03311C6.72904 10.7814 4.68976 13.2662 3.48553 16.1735C2.28131 19.0808 1.96623 22.2798 2.58014 25.3661C3.19404 28.4525 4.70937 31.2874 6.93448 33.5125C9.1596 35.7377 11.9946 37.253 15.0809 37.8669C18.1672 38.4808 21.3663 38.1657 24.2735 36.9615C27.1808 35.7573 29.6657 33.718 31.4139 31.1015C32.5034 29.4711 33.2763 27.6621 33.7041 25.7688C34.317 23.0564 31.9892 21.0383 29.6078 21.0383H26.3441C22.5138 21.0383 19.4087 17.9332 19.4087 14.103V10.8393ZM15.2177 9.13052C16.0215 8.94888 16.961 9.61575 16.961 10.8393V14.103C16.961 19.2851 21.1619 23.486 26.3441 23.486H29.6078C30.8313 23.486 31.4981 24.4255 31.3165 25.2293C30.9545 26.8314 30.3005 28.362 29.3787 29.7416C27.8994 31.9556 25.7968 33.6811 23.3368 34.7001C20.8768 35.719 18.1699 35.9856 15.5584 35.4662C12.9469 34.9467 10.5481 33.6645 8.66531 31.7817C6.78252 29.8989 5.50032 27.5001 4.98086 24.8886C4.4614 22.2771 4.72801 19.5702 5.74697 17.1102C6.76593 14.6502 8.49147 12.5476 10.7054 11.0683C12.085 10.1465 13.6156 9.49253 15.2177 9.13052Z" fill="white"/>
</svg>
