<svg width="17" height="17" viewBox="0 0 17 17" fill="none" xmlns="http://www.w3.org/2000/svg">
<path d="M11.6254 8.49937C11.6254 10.2251 10.2264 11.6241 8.50064 11.6241C6.77489 11.6241 5.3759 10.2251 5.3759 8.49937C5.3759 6.77362 6.77489 5.37463 8.50064 5.37463C10.2264 5.37463 11.6254 6.77362 11.6254 8.49937ZM11.6254 8.49937C11.6254 10.2251 12.2503 11.6241 13.8127 11.6241C15.3751 11.6241 16 10.2251 16 8.49937C15.9999 6.82837 15.4417 5.20529 14.4141 3.88764C13.3864 2.56999 11.9482 1.63326 10.3276 1.22608C8.70695 0.818898 6.99677 0.964589 5.46837 1.64003C3.93998 2.31548 2.68092 3.48199 1.89098 4.95448C1.10104 6.42696 0.825466 8.12108 1.10798 9.76802C1.39049 11.415 2.21491 12.9204 3.45043 14.0454C4.68594 15.1705 6.26178 15.8507 7.92791 15.9781C9.59403 16.1056 11.255 15.673 12.6473 14.749M11.6254 8.49937V5.37463" stroke="#FC7749" stroke-width="2" stroke-linecap="round" stroke-linejoin="round"/>
</svg>
