<svg width="27" height="26" viewBox="0 0 27 26" fill="none" xmlns="http://www.w3.org/2000/svg">
<path d="M13.9667 13C20.5812 13 25.9432 10.3137 25.9432 7C25.9432 3.68629 20.5812 1 13.9667 1C7.3523 1 1.99023 3.68629 1.99023 7C1.99023 10.3137 7.3523 13 13.9667 13Z" stroke="#7958D6" stroke-width="2" stroke-linecap="round" stroke-linejoin="round"/>
<path d="M1.99023 7V13C1.99023 16.3137 7.3523 19 13.9667 19C20.5812 19 25.9432 16.3137 25.9432 13V7" stroke="#7958D6" stroke-width="2" stroke-linecap="round" stroke-linejoin="round"/>
<path d="M1.99023 13V19C1.99023 22.3137 7.3523 25 13.9667 25C20.5812 25 25.9432 22.3137 25.9432 19V13" stroke="#7958D6" stroke-width="2" stroke-linecap="round" stroke-linejoin="round"/>
</svg>
