<svg width="68" height="61" viewBox="0 0 68 61" fill="none" xmlns="http://www.w3.org/2000/svg">
<g clip-path="url(#clip0_36_4790)">
<path d="M33.853 24.0254C38.7905 24.0254 43.7488 24.0254 48.6863 24.0254C49.8738 24.0254 49.978 24.1919 49.5196 25.2954C44.5405 36.8916 39.5613 48.4879 34.5821 60.0841C34.4988 60.2715 34.4363 60.4797 34.3321 60.6462C34.0405 61.0834 33.728 61.1042 33.4155 60.667C33.3113 60.5005 33.228 60.2923 33.1446 60.1049C28.1655 48.4879 23.1655 36.8708 18.1863 25.2329C17.7488 24.1919 17.8738 24.0254 19.0196 24.0254C23.9571 24.0254 28.9155 24.0254 33.853 24.0254Z" fill="#7958D6"/>
<path d="M33.8529 19.029C29.3945 19.029 24.957 19.029 20.4987 19.0082C20.1862 19.0082 19.8737 18.8416 19.582 18.7584C19.707 18.4461 19.7487 18.0713 19.9362 17.8215C24.332 12.1171 28.7487 6.41263 33.1654 0.729013C33.7904 -0.0829327 33.957 -0.0829327 34.5612 0.687374C38.9987 6.41263 43.457 12.1587 47.8945 17.9048C48.0612 18.1338 48.1029 18.4461 48.207 18.7167C47.9154 18.8208 47.6029 18.9874 47.3112 18.9874C42.7904 19.029 38.3112 19.029 33.8529 19.029Z" fill="#7958D6"/>
<path d="M6.20778 24.0252C7.95778 24.0252 9.68695 24.046 11.4369 24.0252C11.9786 24.0252 12.2911 24.171 12.5203 24.6914C16.2286 33.3938 19.9786 42.0754 23.687 50.7778C23.7911 51.0484 23.6453 51.4232 23.6245 51.7355C23.3536 51.6105 22.9786 51.5689 22.7911 51.3607C15.2703 42.6375 7.74945 33.8935 0.249449 25.1286C0.0827821 24.9204 -0.0422179 24.5665 0.0202821 24.3167C0.0619488 24.171 0.478615 24.046 0.749449 24.046C2.56195 24.0044 4.37445 24.0252 6.20778 24.0252Z" fill="#7958D6"/>
<path d="M67.9987 24.4C67.7278 24.7955 67.6028 24.9829 67.457 25.1494C59.957 33.8727 52.4779 42.5959 44.957 51.3191C44.7695 51.5481 44.3737 51.5689 44.082 51.6938C44.0612 51.3607 43.957 50.986 44.0612 50.7153C47.7695 42.0337 51.4987 33.373 55.207 24.7122C55.4154 24.2126 55.707 24.0044 56.2487 24.0044C59.8112 24.0252 63.3737 24.0044 66.957 24.0252C67.2695 24.046 67.5612 24.2542 67.9987 24.4Z" fill="#7958D6"/>
<path d="M53.4375 2.37367C53.0417 6.07948 52.625 9.76446 52.2083 13.4703C52.1667 13.7617 51.9375 14.0324 51.8125 14.3238C51.5417 14.1573 51.2083 14.0324 51.0417 13.8034C47.7708 9.61872 44.5208 5.43408 41.2917 1.2078C41.0833 0.957974 41.0417 0.58323 40.9375 0.250124C41.2708 0.187667 41.6042 0.0211137 41.9375 0.0627519C45.4583 0.416677 48.9792 0.791421 52.5 1.16616C53.5208 1.27026 53.5208 1.29108 53.4375 2.37367Z" fill="#7958D6"/>
<path d="M14.2285 1.66567C14.3743 1.56157 14.6035 1.24929 14.8743 1.20765C18.6243 0.770448 22.3743 0.374885 26.1243 0.000140947C26.3535 -0.0206782 26.791 0.166694 26.791 0.229151C26.7702 0.541438 26.7077 0.895363 26.5202 1.12437C24.0202 4.39297 21.4993 7.64076 18.9785 10.8885C18.2077 11.8879 17.4368 12.908 16.6243 13.9073C16.4577 14.0947 16.1452 14.3237 15.9577 14.2612C15.7702 14.2196 15.5827 13.8449 15.5618 13.6158C15.1868 10.493 14.8535 7.37011 14.5202 4.22642C14.416 3.45611 14.3327 2.68581 14.2285 1.66567Z" fill="#7958D6"/>
<path d="M61.8117 19.0286C60.3742 19.0286 58.9575 19.0078 57.52 19.0286C56.8533 19.0494 56.645 18.7788 56.7283 18.1334C57.1033 14.8648 57.4575 11.5753 57.8117 8.30675C57.8325 8.18183 57.8117 8.0361 57.8742 7.932C57.9992 7.70299 58.1033 7.32825 58.2908 7.28661C58.4783 7.24497 58.8117 7.45316 58.9575 7.66135C59.9992 9.0146 61.02 10.4095 62.0408 11.7835C63.5617 13.8238 65.0825 15.8641 66.6033 17.9044C66.77 18.1334 66.8117 18.4457 66.9158 18.7163C66.6242 18.8204 66.3325 19.0078 66.02 19.0078C64.6242 19.0494 63.2075 19.0286 61.8117 19.0286Z" fill="#7958D6"/>
<path d="M5.85292 19.029C4.41542 19.029 2.99875 19.0499 1.56125 19.0082C1.31125 19.0082 0.977921 18.8833 0.852921 18.6959C0.769588 18.571 0.894588 18.2171 1.04042 18.0297C3.60292 14.5738 6.16542 11.1178 8.76959 7.66181C8.91542 7.45362 9.20709 7.37034 9.43625 7.22461C9.58209 7.47444 9.83209 7.70345 9.85292 7.9741C10.2488 11.4093 10.6238 14.8444 10.9988 18.2796C11.0613 18.8209 10.8113 19.029 10.2904 19.029C8.81125 19.029 7.33209 19.029 5.85292 19.029Z" fill="#7958D6"/>
</g>
<defs>
<clipPath id="clip0_36_4790">
<rect width="68" height="61" fill="white"/>
</clipPath>
</defs>
</svg>
