<svg width="70" height="70" viewBox="0 0 70 70" fill="none" xmlns="http://www.w3.org/2000/svg">
<g clip-path="url(#clip0_36_4741)">
<path d="M27.4995 14.8696C29.777 13.5521 31.9792 12.2722 34.219 11.0299C34.8966 10.6534 35.5742 10.8793 36.2142 11.2558C40.2798 13.6085 44.3454 15.9613 48.4298 18.2953C50.5944 19.5375 52.7401 20.7986 54.9047 22.0221C55.8082 22.5303 56.1846 23.2267 56.1846 24.2619C56.1658 31.4144 56.1658 38.5669 56.1846 45.7193C56.1846 46.7734 55.7705 47.4698 54.8671 47.9968C48.6934 51.5354 42.5196 55.0928 36.3648 58.669C35.4048 59.2337 34.5578 59.2149 33.5979 58.6502C27.4618 55.074 21.3258 51.5354 15.1709 47.9968C14.2298 47.451 13.7969 46.7545 13.7969 45.6629C13.8157 38.5292 13.8157 31.4144 13.7969 24.2808C13.7969 23.1891 14.211 22.4738 15.1709 21.9468C17.0343 20.9116 18.8789 19.8387 20.7235 18.7282C21.1564 18.4647 21.4764 18.4459 21.9281 18.7094C28.61 22.5868 35.3107 26.4453 42.0114 30.3039C42.3879 30.5298 42.5196 30.7744 42.5008 31.1885C42.482 33.7672 42.482 36.3647 42.5008 38.9433C42.5008 39.8844 42.7832 40.0538 43.5925 39.6021C45.0042 38.7927 46.397 37.9645 47.8087 37.174C48.4487 36.8164 48.6745 36.3458 48.6745 35.6306C48.6557 32.9955 48.6557 30.3604 48.6745 27.7252C48.6745 27.1982 48.5051 26.9347 48.0534 26.69C41.4656 22.9067 34.8966 19.1046 28.3277 15.3214C28.083 15.2273 27.8195 15.0767 27.4995 14.8696ZM27.6689 35.48C27.5183 35.3483 27.3113 35.0471 27.0101 34.8777C24.9397 33.6542 22.8692 32.4684 20.7988 31.2826C19.8388 30.7368 18.8977 30.1721 17.9189 29.6451C17.3166 29.3251 16.639 29.7016 16.7331 30.2851C16.7896 30.5862 17.0908 30.9438 17.3731 31.1132C20.2906 32.8261 23.208 34.5013 26.1443 36.1953C26.3325 36.3082 26.5207 36.4211 26.7089 36.4588C27.236 36.5905 27.6689 36.2141 27.6689 35.48ZM17.3731 33.7484C17.1661 33.9554 16.7896 34.1813 16.7896 34.3883C16.8084 34.7271 16.9967 35.1789 17.2602 35.3483C18.6718 36.2329 20.1212 37.0234 21.5705 37.8704C22.041 38.1528 22.4928 38.2469 22.8692 37.7199C23.1704 37.2869 22.9821 36.854 22.3422 36.4964C20.9493 35.6871 19.5377 34.8777 18.1448 34.0683C17.9378 33.9554 17.7119 33.8989 17.3731 33.7484Z" fill="#7958D6"/>
<path d="M4.42321 59.817C6.24897 57.9725 7.99944 56.2032 9.76874 54.4339C10.7475 53.4551 11.1616 53.4551 12.1592 54.4527C13.3638 55.6573 14.5496 56.8431 15.7542 58.0478C16.4695 58.763 16.4695 59.3277 15.7542 60.0429C14.1167 61.6993 12.4603 63.3368 10.8228 64.9744C10.6346 65.1626 10.3899 65.2755 10.1075 65.4637C11.011 66.3484 11.7827 67.0636 12.5168 67.8353C12.705 68.0424 12.8744 68.4 12.8368 68.6635C12.8179 68.8329 12.385 69.0023 12.1027 69.0211C8.37589 69.3599 4.64908 69.6611 0.941095 69.9623C0.169383 70.0187 -0.0188399 69.8305 0.0376269 69.0964C0.338783 65.3508 0.658762 61.6052 0.97874 57.8595C0.997562 57.596 1.16696 57.2196 1.37401 57.1443C1.58105 57.069 1.9575 57.2572 2.14572 57.4454C2.87979 58.1983 3.59503 58.97 4.42321 59.817Z" fill="#7958D6"/>
<path d="M10.1455 4.46069C10.8231 5.10064 11.4442 5.66531 12.0465 6.2488C13.2888 7.47225 14.5122 8.69569 15.7357 9.93796C16.4509 10.672 16.4697 11.2179 15.7545 11.9331C14.4746 13.213 13.1947 14.493 11.9147 15.7729C11.2371 16.4505 10.6537 16.4505 9.97605 15.754C8.15029 13.9283 6.32453 12.1025 4.4423 10.1827C3.65177 10.9732 2.93652 11.7449 2.16481 12.4601C1.95777 12.6672 1.5625 12.8742 1.35545 12.8178C1.16723 12.7613 0.979008 12.3284 0.960185 12.0461C0.621385 8.31925 0.320228 4.59244 0.0190722 0.884455C-0.0373946 0.150387 0.150828 -0.0378357 0.922541 0.0186311C4.64935 0.319787 8.37616 0.639766 12.0841 0.959744C12.3477 0.978567 12.7806 1.14797 12.8182 1.31737C12.8747 1.56206 12.7053 1.9385 12.5171 2.14555C11.783 2.89844 10.9925 3.61368 10.1455 4.46069Z" fill="#7958D6"/>
<path d="M65.6147 59.8171C66.4052 59.0077 67.1205 58.236 67.8734 57.502C68.0616 57.3137 68.4757 57.0879 68.6263 57.182C68.8521 57.2949 69.0215 57.6714 69.0403 57.9537C69.3791 61.6805 69.6803 65.4073 69.9815 69.1153C70.0379 69.8682 69.8497 70.0564 69.0968 69.9999C65.37 69.6988 61.6432 69.3976 57.9352 69.0588C57.6529 69.04 57.22 68.8518 57.1823 68.6447C57.1258 68.4189 57.3517 68.0424 57.5399 67.8354C58.2552 67.0825 59.0081 66.3861 59.8927 65.5202C59.2339 64.9179 58.6316 64.4097 58.067 63.8639C56.787 62.6216 55.526 61.3417 54.2649 60.0806C53.512 59.3277 53.512 58.7819 54.2649 58.029C55.5071 56.7867 56.7494 55.5256 58.0105 54.2834C58.7634 53.5305 59.3092 53.5305 60.0621 54.2645C61.8879 56.0715 63.6948 57.8972 65.6147 59.8171Z" fill="#7958D6"/>
<path d="M59.8172 4.40419C59.0078 3.61366 58.2549 2.91724 57.5397 2.18317C57.3326 1.97612 57.1068 1.59968 57.182 1.37381C57.2385 1.18559 57.6714 0.997365 57.9349 0.959721C61.6617 0.62092 65.3886 0.319764 69.0965 0.0186074C69.8494 -0.0378594 70.0376 0.150363 69.9812 0.903254C69.68 4.64888 69.36 8.39452 69.0401 12.1401C69.0212 12.3848 68.8707 12.7801 68.7013 12.8177C68.4754 12.8742 68.099 12.7425 67.9296 12.5731C67.1578 11.8202 66.405 11.0296 65.4827 10.0885C65.1815 10.4838 64.9745 10.8226 64.6921 11.1049C63.1487 12.6672 61.6053 14.2106 60.0619 15.754C59.309 16.5069 58.7631 16.4881 58.0102 15.7352C56.7491 14.4741 55.488 13.213 54.227 11.9519C53.5493 11.2555 53.5493 10.6908 54.227 10.0132C56.0527 8.14983 57.8785 6.32407 59.8172 4.40419Z" fill="#7958D6"/>
</g>
<defs>
<clipPath id="clip0_36_4741">
<rect width="70" height="70" fill="white"/>
</clipPath>
</defs>
</svg>
