<svg width="60" height="60" viewBox="0 0 60 60" fill="none" xmlns="http://www.w3.org/2000/svg">
<g clip-path="url(#clip0_36_4767)">
<path d="M59.9989 9.14063C59.8583 10.2344 59.7334 11.3438 59.5615 12.4375C58.6399 18.2344 56.3905 23.5 53.1257 28.3594C50.392 32.4531 46.9086 35.8594 43.3001 39.1719C42.9721 39.4688 42.8315 39.7656 42.8315 40.2188C42.8471 42.3125 42.8471 44.3906 42.8471 46.4844C42.8471 48.4063 41.9724 49.8125 40.2697 50.6875C37.6297 52.0313 34.9742 53.3438 32.3186 54.6719C31.4907 55.0938 30.6472 55.2188 29.8505 54.5938C29.2726 54.1406 29.0382 53.5313 29.0382 52.7969C29.0539 51.2031 29.0382 49.5938 29.0382 48C29.0382 47.8906 29.0226 47.7656 29.0226 47.7344C28.0541 47.7656 27.1012 47.875 26.164 47.8281C24.8674 47.7656 23.7584 47.2031 22.8367 46.2813C19.8375 43.2813 16.8383 40.2969 13.8547 37.2969C12.2457 35.6719 11.9333 33.7031 12.3707 31.5469C12.4019 31.4219 12.4332 31.2813 12.48 31.0781C12.2457 31.0625 12.0427 31.0469 11.8396 31.0469C10.3556 31.0469 8.87161 31.0469 7.38763 31.0469C5.49749 31.0313 4.54462 29.5469 5.37253 27.8438C6.71593 25.0938 8.07495 22.3438 9.48083 19.625C10.2931 18.0781 11.6365 17.2344 13.4173 17.2344C15.5574 17.2188 17.7131 17.2188 19.8531 17.2344C20.2749 17.2344 20.5561 17.125 20.8529 16.7969C24.68 12.625 28.6633 8.65625 33.5683 5.73438C39.1606 2.40625 45.1434 0.359375 51.6886 0.09375C51.876 0.078125 52.0791 0.046875 52.2666 0.015625C52.6571 0.015625 53.0476 0.015625 53.4381 0.015625C53.8599 0.046875 54.2817 0.109375 54.719 0.125C57.3277 0.25 59.3272 1.95313 59.8427 4.5C59.8896 4.76563 59.9521 5.03125 59.9989 5.29688C59.9989 6.5625 59.9989 7.85938 59.9989 9.14063ZM52.5165 16.1875C52.5321 11.4219 48.7206 7.5625 43.9718 7.53125C39.2543 7.5 35.3335 11.375 35.3179 16.0938C35.2866 20.8438 39.145 24.7188 43.8781 24.7344C48.6425 24.75 52.4853 20.9531 52.5165 16.1875Z" fill="#7958D6"/>
<path d="M0.718285 59.9999C0.155931 59.7968 0.109068 59.3281 0.0778265 58.8124C-0.125246 55.0781 -0.015899 51.3906 1.45247 47.8906C2.5928 45.1562 4.45169 43.1718 7.40404 42.3906C11.2624 41.3749 15.3082 43.2343 17.0734 46.8124C18.8386 50.4062 17.8388 54.7343 14.6678 57.1718C12.6995 58.6874 10.3876 59.3749 7.9664 59.7343C7.7477 59.7656 7.3728 59.5468 7.23221 59.3281C6.76359 58.5624 6.60738 57.6874 6.68548 56.7968C6.73234 56.2656 6.65424 55.8124 6.06064 55.6406C5.48267 55.4687 5.12339 55.7812 4.88907 56.2656C4.71724 56.6093 4.54541 56.9687 4.42045 57.3281C3.88933 58.8437 2.82711 59.6874 1.2494 59.8906C1.14005 59.9062 1.0307 59.9531 0.921357 59.9843C0.874494 59.9999 0.796389 59.9999 0.718285 59.9999Z" fill="#7958D6"/>
</g>
<defs>
<clipPath id="clip0_36_4767">
<rect width="60" height="60" fill="white"/>
</clipPath>
</defs>
</svg>
