<svg width="121" height="122" viewBox="0 0 121 122" fill="none" xmlns="http://www.w3.org/2000/svg">
<circle cx="60.4818" cy="60.9251" r="60.4818" fill="#FC7749"/>
<g clip-path="url(#clip0_36_8843)">
<path d="M94.5517 85.2785C94.4796 85.4939 94.4075 85.6914 94.3353 85.9068C93.7042 88.0071 91.8649 89.4073 89.6829 89.4791C89.5026 89.4791 89.3222 89.4791 89.1419 89.4791C69.6485 89.4791 50.1551 89.4791 30.6618 89.4791C29.2732 89.4791 28.029 89.138 27.0011 88.2045C25.811 87.1275 25.306 85.7811 25.306 84.1835C25.3241 73.4307 25.306 62.6959 25.306 51.9432C25.306 46.8451 25.3782 41.7649 25.288 36.6667C25.2339 33.5791 27.6142 31.2275 30.7339 31.2275C50.1732 31.2814 69.5944 31.2634 89.0157 31.2634C91.9911 31.2634 93.6501 32.5021 94.4796 35.3743C94.4976 35.4102 94.5337 35.4461 94.5517 35.482C94.5517 45.9834 94.5517 56.4848 94.5517 66.9863C94.2271 67.453 93.8304 67.83 93.2173 67.6146C92.6042 67.3991 92.5321 66.8786 92.5321 66.3041C92.5321 59.3211 92.5321 52.3561 92.5321 45.3731C92.5321 45.1038 92.5321 44.8525 92.5321 44.5114C92.1894 44.5114 91.9009 44.5114 91.6124 44.5114C73.4174 44.5114 55.2404 44.5114 37.0454 44.5114C35.9634 44.5114 35.4585 44.1703 35.4765 43.4702C35.4945 42.7881 35.9814 42.4829 37.0273 42.4829C55.2223 42.4829 73.3993 42.4829 91.5944 42.4829C91.8829 42.4829 92.1714 42.4829 92.5321 42.4829C92.5321 41.7828 92.5321 41.1545 92.5321 40.5083C92.5321 39.0901 92.5501 37.672 92.5321 36.2718C92.496 34.6024 91.2517 33.3637 89.5747 33.3099C89.4845 33.3099 89.3944 33.3099 89.3042 33.3099C69.7387 33.3099 50.1732 33.3099 30.6077 33.3099C28.9126 33.3099 27.7224 34.2074 27.3978 35.7153C27.3798 35.7871 27.3618 35.841 27.3618 35.9128C27.3618 38.0849 27.3618 40.257 27.3618 42.5009C28.6601 42.5009 29.9224 42.5009 31.1667 42.5009C31.365 42.5009 31.5814 42.4829 31.7798 42.5009C32.3568 42.5547 32.7536 42.9676 32.7536 43.5061C32.7536 44.0626 32.3208 44.4935 31.6896 44.4935C30.5355 44.5114 29.3995 44.4935 28.2454 44.4935C27.9749 44.4935 27.7044 44.4935 27.3437 44.4935C27.3437 44.7627 27.3437 44.9961 27.3437 45.2294C27.3437 58.1902 27.3437 71.1689 27.3437 84.1296C27.3437 86.2658 28.5339 87.4685 30.6798 87.4685C50.1732 87.4685 69.6666 87.4685 89.1599 87.4685C91.3058 87.4685 92.514 86.2838 92.514 84.1476C92.514 80.0188 92.514 75.89 92.514 71.7613C92.514 71.1868 92.5681 70.6662 93.1812 70.4329C93.8124 70.1816 94.1911 70.5765 94.5337 71.0073C94.5517 75.7644 94.5517 80.5214 94.5517 85.2785Z" fill="white"/>
<path d="M43.1763 80.7191C39.9304 80.7191 36.6845 80.7191 33.4386 80.7191C31.8517 80.7191 31.0763 79.9472 31.0943 78.3675C31.0943 77.2007 31.0222 76.0159 31.2025 74.885C31.7074 71.7615 33.7271 69.7689 36.5041 68.4585C37.3517 68.0636 38.2714 67.8302 39.173 67.543C39.714 67.3635 39.9304 66.7352 39.4795 66.3761C38.4336 65.5324 37.7664 64.4913 37.4599 63.1988C37.4238 63.0552 37.2615 62.9116 37.1173 62.8398C36.432 62.4269 36.1255 61.8345 36.1255 61.0447C36.1255 59.2675 36.1074 57.4903 36.1255 55.7311C36.1615 53.1461 38.1992 51.0638 40.7959 50.992C42.4369 50.9381 44.0959 50.9561 45.7369 50.992C46.8189 51.0099 47.5943 51.5844 48.0451 52.5717C48.1533 52.8051 48.3877 53.0205 48.6221 53.1102C49.6139 53.559 50.2271 54.295 50.2271 55.39C50.2631 57.2929 50.2812 59.2136 50.209 61.1165C50.191 61.6191 49.8844 62.2294 49.5057 62.5525C49.109 62.8936 48.8746 63.2526 48.7303 63.7373C48.4238 64.7605 47.8107 65.5683 47.0353 66.2864C46.8189 66.4839 46.7287 66.8788 46.7107 67.2019C46.7107 67.3276 47.0894 67.5071 47.3238 67.5609C49.0008 67.9738 50.5697 68.638 51.9402 69.6971C53.9238 71.2409 55.132 73.2155 55.2582 75.7467C55.3123 76.734 55.3123 77.7213 55.2762 78.7086C55.2221 79.9472 54.3746 80.7191 53.1123 80.7191C49.8123 80.7191 46.4943 80.7191 43.1763 80.7191ZM41.7156 67.525C41.4451 68.6918 40.6877 69.3022 39.5697 69.5176C39.3533 69.5535 39.1189 69.6074 38.9205 69.6612C33.9255 71.1691 32.6812 74.3285 33.2222 78.6547C39.8763 78.6547 46.5303 78.6547 53.2746 78.6547C53.2746 77.8469 53.2926 77.075 53.2746 76.2852C53.2385 74.3824 52.4992 72.8027 51.0926 71.5461C49.9746 70.5408 48.6582 69.9125 47.2156 69.6074C45.9533 69.356 44.9435 68.8714 44.673 67.525C44.132 67.5609 43.6631 67.6327 43.1943 67.6327C42.7074 67.6327 42.2386 67.5609 41.7156 67.525ZM38.1632 60.9549C39.0828 61.3857 39.2632 61.6011 39.3894 62.3371C39.714 64.2759 41.2287 65.6042 43.1582 65.6222C45.1238 65.6401 46.6566 64.3477 46.9812 62.3551C47.0894 61.7627 47.3238 61.3139 47.9008 61.0447C48.0451 60.9908 48.2074 60.7754 48.2074 60.6318C48.2254 58.9444 48.2254 57.2749 48.2254 55.5875C48.2254 55.2105 48.0631 55.0131 47.6664 54.9772C46.8189 54.9054 46.314 54.4207 46.1877 53.577C46.1336 53.1641 45.9172 52.9846 45.5205 52.9846C43.9517 52.9846 42.3648 52.9487 40.7959 53.0025C39.3894 53.0564 38.2173 54.1873 38.1812 55.5336C38.1271 57.3467 38.1632 59.1598 38.1632 60.9549Z" fill="white"/>
<path d="M73.3647 58.2442C69.091 58.2442 64.7992 58.2442 60.5254 58.2442C58.7402 58.2442 57.9287 57.4185 57.9287 55.6593C57.9287 54.9592 57.9287 54.277 57.9287 53.5769C57.9287 51.7818 58.7582 50.9561 60.5976 50.9561C67.8106 50.9561 75.0237 50.9561 82.2188 50.9561C83.6073 50.9561 85.0139 50.9561 86.4024 50.9561C87.8811 50.9561 88.7647 51.8357 88.8007 53.2897C88.8188 54.1693 88.8188 55.031 88.8007 55.9106C88.7827 57.3826 87.9171 58.2263 86.4204 58.2442C82.0565 58.2622 77.7106 58.2442 73.3647 58.2442ZM86.745 56.1978C86.745 55.3541 86.6909 54.5822 86.763 53.8282C86.8171 53.1281 86.5827 52.9666 85.8975 52.9845C77.5303 53.0025 69.1811 53.0025 60.8139 53.0025C60.6877 53.0025 60.5435 53.0204 60.4172 53.0025C60.0746 52.9845 59.9303 53.1281 59.9303 53.4692C59.9484 54.1334 59.9844 54.8156 59.9123 55.4797C59.8582 56.126 60.1107 56.2516 60.7058 56.2516C69.127 56.2337 77.5664 56.2337 85.9876 56.2337C86.2221 56.2337 86.4385 56.1978 86.745 56.1978Z" fill="white"/>
<path d="M73.3993 68.0094C77.9976 68.0094 82.596 68.0094 87.1943 68.0094C87.4107 68.0094 87.6452 67.9914 87.8615 68.0273C88.4025 68.0812 88.7271 68.3863 88.7632 68.9428C88.7992 69.4814 88.5288 69.8583 88.0058 69.984C87.7714 70.0379 87.5189 70.0379 87.2665 70.0379C77.9796 70.0379 68.6928 70.0379 59.4059 70.0379C59.2075 70.0379 58.9911 70.0379 58.7928 70.002C58.2157 69.8942 57.837 69.4455 57.9092 68.9249C57.9993 68.3684 58.3239 68.0453 58.919 68.0273C59.1715 68.0273 59.4059 68.0273 59.6584 68.0273C64.2387 68.0094 68.819 68.0094 73.3993 68.0094Z" fill="white"/>
<path d="M73.4002 64.7425C68.7838 64.7425 64.1674 64.7425 59.551 64.7425C59.2986 64.7425 59.0461 64.7425 58.8117 64.7245C58.2707 64.6527 57.9641 64.3116 57.9461 63.7731C57.9281 63.2346 58.2166 62.8755 58.7576 62.7678C58.974 62.7319 59.2084 62.7319 59.4248 62.7319C68.7116 62.7319 77.9985 62.7319 87.2673 62.7319C87.4657 62.7319 87.6821 62.7319 87.8804 62.7499C88.4575 62.8396 88.7821 63.1628 88.7821 63.7372C88.7821 64.3116 88.4575 64.6527 87.8804 64.7245C87.628 64.7604 87.3936 64.7425 87.1411 64.7425C82.5428 64.7425 77.9624 64.7425 73.4002 64.7425Z" fill="white"/>
<path d="M66.1506 73.269C68.5129 73.269 70.8752 73.269 73.2375 73.269C73.9227 73.269 74.3555 73.6819 74.3736 74.2564C74.3736 74.8308 73.9408 75.2437 73.2555 75.2796C73.0752 75.2975 72.8949 75.2796 72.7146 75.2796C68.8916 75.2796 65.0687 75.2796 61.2277 75.2796C60.5244 75.2796 59.8392 75.2796 59.1359 75.2796C58.3605 75.2616 57.8916 74.8667 57.9097 74.2384C57.9277 73.646 58.3785 73.269 59.1179 73.269C61.4621 73.269 63.8064 73.269 66.1506 73.269Z" fill="white"/>
<path d="M83.7515 38.8565C82.8318 38.8565 81.9122 38.8745 80.9925 38.8565C80.2712 38.8386 79.8204 38.4436 79.8384 37.8333C79.8564 37.2589 80.2712 36.846 80.9745 36.846C82.8679 36.828 84.7433 36.828 86.6368 36.846C87.3581 36.846 87.8089 37.2768 87.8089 37.8692C87.7908 38.4616 87.34 38.8386 86.6007 38.8565C85.645 38.8745 84.6892 38.8565 83.7515 38.8565Z" fill="white"/>
<path d="M39.8947 37.8695C39.8766 38.426 39.4078 38.8568 38.8307 38.8388C38.2898 38.8209 37.875 38.3901 37.875 37.8336C37.875 37.2591 38.3619 36.8103 38.9209 36.8463C39.4619 36.8822 39.8947 37.3489 39.8947 37.8695Z" fill="white"/>
<path d="M44.6544 37.8695C44.6544 38.4081 44.2216 38.8389 43.6807 38.8569C43.1036 38.8748 42.6348 38.426 42.6348 37.8695C42.6348 37.349 43.0856 36.8822 43.6085 36.8643C44.1675 36.8463 44.6544 37.313 44.6544 37.8695Z" fill="white"/>
<path d="M35.1166 37.8875C35.0986 38.444 34.6658 38.8569 34.1068 38.8389C33.5117 38.8389 33.097 38.3722 33.133 37.7798C33.1691 37.2413 33.638 36.8104 34.1609 36.8463C34.7019 36.8822 35.1347 37.349 35.1166 37.8875Z" fill="white"/>
</g>
<defs>
<clipPath id="clip0_36_8843">
<rect width="69.2637" height="58.2695" fill="white" transform="translate(25.2871 31.2275)"/>
</clipPath>
</defs>
</svg>
