<svg width="122" height="122" viewBox="0 0 122 122" fill="none" xmlns="http://www.w3.org/2000/svg">
<circle cx="60.9788" cy="60.7513" r="60.4818" fill="#FC7749"/>
<mask id="mask0_86_59" style="mask-type:alpha" maskUnits="userSpaceOnUse" x="0" y="0" width="122" height="122">
<circle cx="60.9808" cy="60.7508" r="60.4818" fill="#FC7749"/>
</mask>
<g mask="url(#mask0_86_59)">
</g>
<g clip-path="url(#clip0_86_59)">
<path d="M79.4961 30.1279C80.2434 30.377 80.9907 30.5763 81.7213 30.8586C82.3689 31.1243 82.5848 31.6059 82.3689 32.1373C82.1364 32.6686 81.6217 32.8347 80.9574 32.5524C77.1215 30.9416 73.186 33.1834 72.7044 37.2685C72.3391 40.2575 74.6805 43.1968 77.7359 43.5621C80.9242 43.9606 83.8967 41.669 84.2454 38.5969C84.3616 37.5176 84.2454 36.488 83.8302 35.4916C83.5479 34.8108 83.6808 34.296 84.1956 34.0635C84.7435 33.8144 85.2417 34.0635 85.5406 34.7776C86.2713 36.488 86.3377 38.2316 85.8395 40.0084C85.7897 40.1911 85.7399 40.3572 85.6569 40.6229C86.4041 40.6229 87.1016 40.6229 87.799 40.6229C89.6256 40.6395 90.8046 41.8019 90.8046 43.6285C90.8046 54.9371 90.8046 66.2457 90.8046 77.571C90.8046 79.0987 89.9245 79.9788 88.4134 79.9788C86.3543 79.9788 84.3118 79.9788 82.2527 79.9788C81.4556 79.9788 81.0405 79.6633 81.0405 79.0489C81.0405 78.4511 81.4722 78.119 82.2527 78.119C84.2454 78.119 86.2381 78.1023 88.2307 78.119C88.7289 78.119 88.9282 78.0027 88.9282 77.4547C88.9116 68.1222 88.9116 58.7731 88.9116 49.4406C88.9116 49.3409 88.895 49.2413 88.895 49.0753C88.6625 49.0586 88.4466 49.042 88.2307 49.042C81.7379 49.042 75.2451 49.042 68.7356 49.0254C68.3205 49.0254 68.0714 49.1417 67.8223 49.4904C64.7336 53.6751 58.5729 53.6585 55.4843 49.4738C55.2518 49.1583 55.0193 49.0254 54.6208 49.0254C48.0781 49.042 41.5521 49.042 35.0094 49.042C34.8267 49.042 34.6441 49.0586 34.395 49.0753C34.395 49.3077 34.395 49.507 34.395 49.7063C34.395 58.9059 34.395 68.089 34.3784 77.2887C34.3784 77.8865 34.5112 78.119 35.1589 78.119C40.5059 78.0857 45.8695 78.1023 51.2166 78.1023C51.3993 78.1023 51.5819 78.1023 51.7978 78.1023C51.7978 74.0671 51.7978 70.0983 51.7978 66.0299C51.0671 66.0299 50.3531 66.0465 49.6224 66.0299C46.6832 65.98 44.4249 64.087 43.8935 61.2142C43.2791 57.9262 45.8695 54.6548 49.2239 54.5386C50.6354 54.4888 52.0469 54.522 53.4584 54.522C54.0728 54.522 54.4381 54.8707 54.4547 55.4021C54.4713 55.9501 54.106 56.3652 53.475 56.3818C52.1465 56.3985 50.8181 56.3818 49.4896 56.3985C47.5301 56.4317 45.9194 57.893 45.7035 59.7694C45.471 61.7788 46.7164 63.6552 48.6925 64.0206C49.7221 64.2198 50.8014 64.1202 51.8476 64.1202C51.9805 64.1202 52.1299 63.9209 52.2295 63.7881C53.6078 61.5629 56.4142 61.5629 57.7758 63.7881C57.8755 63.9541 58.1412 64.1202 58.3404 64.1202C62.741 64.1368 67.1415 64.1368 71.542 64.1202C71.7247 64.1202 71.9903 64.0039 72.0734 63.8545C73.6509 61.1809 74.4646 60.5001 77.4702 59.4539C77.3706 58.6402 76.9555 57.9926 76.3909 57.4446C75.6104 56.6974 74.6473 56.3652 73.5679 56.3652C68.5198 56.3818 63.4882 56.3652 58.4401 56.3652C58.191 56.3652 57.9419 56.3818 57.6928 56.3154C57.2113 56.1992 56.9622 55.8505 56.9954 55.3523C57.0286 54.8541 57.3275 54.5552 57.8423 54.522C58.0415 54.5054 58.2574 54.5054 58.4567 54.5054C63.372 54.5054 68.2873 54.5054 73.2192 54.5054C76.4573 54.5054 78.3669 55.9169 79.3467 59.0056C79.3965 59.155 79.6456 59.3377 79.8116 59.3709C83.6476 59.8857 86.2547 62.4762 86.7362 66.2457C87.2344 70.1481 84.1956 74.0837 80.2766 74.5985C75.2783 75.2627 71.1933 71.4932 71.459 66.445C71.459 66.3454 71.459 66.2457 71.459 66.0797C67.0418 66.0797 62.6413 66.0797 58.191 66.0797C58.191 67.3251 58.191 68.5872 58.191 69.8824C59.453 69.4507 60.5822 69.6333 61.6118 70.5301C63.0731 69.3843 64.551 69.3344 66.0621 70.5301C66.7595 69.9655 67.5566 69.5835 68.5031 69.6666C70.1969 69.816 71.4091 71.1611 71.4424 72.9545C71.4756 74.4324 71.4424 75.8938 71.4424 77.3717C71.4424 77.5876 71.4424 77.82 71.4424 78.1023C72.0734 78.1023 72.6546 78.1023 73.2358 78.1023C74.6307 78.1023 76.0089 78.1023 77.4038 78.1023C78.0847 78.1023 78.4998 78.4677 78.4998 79.0323C78.4998 79.5969 78.1013 79.9622 77.4204 79.9622C75.6768 79.9622 73.9332 79.9622 72.1896 79.9622C71.9737 79.9622 71.7413 79.9622 71.4424 79.9622C71.4424 80.6597 71.4424 81.3073 71.4424 81.9383C71.4258 84.2963 70.2135 85.9569 67.9386 86.6378C67.54 86.754 67.5234 86.9533 67.6064 87.2854C67.8057 87.302 67.9884 87.3186 68.171 87.3518C68.9847 87.4847 69.4995 88.0161 69.5327 88.8796C69.5659 90.0254 69.5493 91.1546 69.5493 92.3004C69.5493 93.1141 69.0511 93.579 68.3703 93.8779C63.8868 93.8779 59.4032 93.8779 54.9197 93.8779C54.2554 93.579 53.7573 93.1473 53.7407 92.3502C53.7241 91.1712 53.7074 89.9756 53.7573 88.7965C53.7905 87.9995 54.272 87.5013 55.0525 87.3352C55.202 87.302 55.368 87.2688 55.7666 87.1858C55.4843 86.9035 55.3514 86.6544 55.1521 86.588C52.9934 85.7909 51.8642 84.2133 51.8642 81.9051C51.8642 81.2741 51.8642 80.6264 51.8642 79.9456C51.5321 79.9456 51.283 79.9456 51.0505 79.9456C45.7533 79.9456 40.4727 79.9456 35.1755 79.9456C33.3488 79.9456 32.5518 79.1485 32.5518 77.3385C32.5518 66.1793 32.5518 55.0036 32.5518 43.8444C32.5518 41.6856 33.6477 40.6063 35.8231 40.6063C42.1333 40.6063 48.4434 40.6063 54.7536 40.5896C55.0193 40.5896 55.4012 40.49 55.5507 40.2907C58.656 36.2223 64.717 36.2223 67.8223 40.2741C67.9219 40.407 68.1046 40.573 68.2541 40.573C69.267 40.6063 70.2634 40.5896 71.3261 40.5896C71.2597 40.3406 71.2265 40.1911 71.1767 40.025C70.2135 36.8035 71.3593 33.4657 74.1159 31.4896C75.1454 30.759 76.3244 30.3936 77.5367 30.0947C78.1677 30.1279 78.8319 30.1279 79.4961 30.1279ZM65.7466 87.2854C65.7466 86.7872 65.73 86.3555 65.7466 85.9237C65.7798 85.2927 66.0953 84.9772 66.7097 84.9274C68.6692 84.7779 69.6157 83.765 69.6157 81.7889C69.6157 78.9659 69.6157 76.1429 69.6157 73.3199C69.6157 73.1206 69.6157 72.9047 69.5825 72.7054C69.4829 72.008 68.9681 71.5264 68.3537 71.5098C67.6895 71.4932 67.1415 71.9582 67.0585 72.6888C66.992 73.2866 66.7429 73.6852 66.1119 73.7184C65.5805 73.7516 65.265 73.3863 65.1654 72.7054C65.1488 72.556 65.1156 72.4231 65.0492 72.2903C64.8167 71.7589 64.3849 71.4932 63.8037 71.5264C63.2059 71.5762 62.7742 71.8917 62.6579 72.4896C62.5417 73.0874 62.4587 73.7018 61.6782 73.7018C60.8645 73.7184 60.8147 73.0708 60.6486 72.4729C60.549 72.1408 60.2335 71.7921 59.918 71.626C59.2372 71.2773 58.4069 71.7257 58.2076 72.4729C58.1744 72.5726 58.191 72.6722 58.1744 72.7885C58.0748 73.4029 57.726 73.735 57.1946 73.7184C56.6633 73.7018 56.2979 73.3032 56.2979 72.6556C56.2979 70.2976 56.2979 67.9229 56.2979 65.5649C56.2979 64.6184 55.8164 64.0372 55.0525 64.0039C54.2554 63.9707 53.7241 64.5852 53.7241 65.5483C53.7241 71.0614 53.7074 76.5912 53.7241 82.1044C53.7241 83.6985 54.7868 84.7779 56.381 84.9274C57.0784 84.9938 57.3773 85.3093 57.4105 86.0067C57.4271 86.4385 57.4105 86.8703 57.4105 87.3352C60.0508 87.3352 62.5915 87.3352 65.1488 87.3352C65.3315 87.3186 65.4975 87.302 65.7466 87.2854ZM79.1474 61.2142C75.9425 61.2142 73.3354 63.8213 73.3354 67.0262C73.352 70.2145 75.9259 72.8051 79.0976 72.8383C82.2693 72.8549 84.9262 70.2312 84.9428 67.0428C84.976 63.8379 82.3523 61.2142 79.1474 61.2142ZM61.6616 50.7358C64.8665 50.7524 67.4902 48.1287 67.4902 44.9404C67.4902 41.7687 64.8997 39.1615 61.728 39.1283C58.5397 39.0951 55.8994 41.7022 55.8662 44.9072C55.833 48.0789 58.4567 50.7192 61.6616 50.7358ZM88.9614 47.1158C88.9614 45.9035 88.9614 44.7743 88.9614 43.6285C88.9614 42.8314 88.6127 42.4993 87.8156 42.4827C86.8857 42.4661 85.9558 42.4661 85.0092 42.4993C84.7768 42.5159 84.4945 42.6322 84.3284 42.7982C80.9574 46.4017 76.0089 46.4017 72.6546 42.7982C72.5217 42.6654 72.3225 42.4993 72.1564 42.4993C71.1269 42.4661 70.0973 42.4827 68.9847 42.4827C69.4331 44.0437 69.4829 45.5548 69.0511 47.1158C75.71 47.1158 82.2859 47.1158 88.9614 47.1158ZM43.5281 47.1158C47.1316 47.1158 50.6852 47.1158 54.3219 47.1158C53.8735 45.5548 53.9399 44.0603 54.3717 42.5159C50.7184 42.5159 47.1482 42.5159 43.5281 42.5159C43.5281 44.0437 43.5281 45.5548 43.5281 47.1158ZM55.6835 91.9849C59.7187 91.9849 63.7041 91.9849 67.6895 91.9849C67.6895 91.0383 67.6895 90.1416 67.6895 89.2449C63.6543 89.2449 59.6855 89.2449 55.6835 89.2449C55.6835 90.1748 55.6835 91.0882 55.6835 91.9849ZM41.6019 42.4827C39.493 42.4827 37.4671 42.4827 35.4245 42.4827C34.9098 42.4827 34.478 42.7484 34.4614 43.2632C34.4116 44.5418 34.4448 45.8205 34.4448 47.0992C36.8692 47.0992 39.2273 47.0992 41.6019 47.0992C41.6019 45.5714 41.6019 44.0603 41.6019 42.4827Z" fill="white"/>
<path d="M61.678 59.3376C64.9161 59.3376 68.1542 59.3376 71.3923 59.3376C71.6248 59.3376 71.8573 59.3376 72.0732 59.3708C72.5215 59.4539 72.754 59.7528 72.7872 60.2011C72.8204 60.6661 72.6045 61.0148 72.1396 61.1311C71.9071 61.1975 71.6414 61.1975 71.3923 61.1975C64.9161 61.1975 58.4399 61.1975 51.9636 61.1975C51.7145 61.1975 51.4655 61.1975 51.2164 61.1311C50.7514 60.9982 50.5355 60.6661 50.5688 60.2011C50.602 59.7528 50.8344 59.4705 51.2828 59.3708C51.4987 59.321 51.7312 59.3376 51.9636 59.3376C55.2184 59.3376 58.4565 59.3376 61.678 59.3376Z" fill="white"/>
<path d="M79.4637 41.6357C79.3641 42.7151 79.1316 43.0472 78.5504 43.0805C77.936 43.1137 77.6537 42.7483 77.4876 41.6025C77.1721 41.6025 76.8566 41.6191 76.5245 41.6025C75.9433 41.5693 75.5613 41.204 75.5613 40.6892C75.5613 40.191 75.9599 39.7759 76.5245 39.7593C77.3714 39.7261 78.2183 39.7593 79.0818 39.7427C79.281 39.7427 79.5467 39.6596 79.6796 39.5268C79.9453 39.2279 79.6962 38.7961 79.2312 38.7629C78.7829 38.7297 78.3179 38.7629 77.8695 38.7463C76.5079 38.7297 75.5281 37.9492 75.3787 36.7204C75.2126 35.4583 75.9101 34.4454 77.2053 34.0801C77.3049 34.0468 77.4046 34.0136 77.4876 33.997C77.6869 32.8844 77.936 32.5357 78.5172 32.5523C79.0818 32.5689 79.3142 32.8844 79.5135 34.0302C79.829 34.0302 80.1611 34.0136 80.4766 34.0302C81.0578 34.0635 81.4398 34.4454 81.4232 34.9602C81.4232 35.4916 81.0412 35.8569 80.46 35.8735C79.6131 35.8901 78.7663 35.8901 77.9028 35.8735C77.5208 35.8735 77.2219 35.9731 77.2219 36.4049C77.2385 36.82 77.5374 36.8865 77.8861 36.8698C78.3013 36.8698 78.7164 36.8698 79.1316 36.8698C80.46 36.8865 81.4896 37.7334 81.6224 38.929C81.7719 40.2242 81.0578 41.2372 79.7128 41.5859C79.6298 41.5859 79.5633 41.6025 79.4637 41.6357Z" fill="white"/>
<path d="M42.0001 73.5854C41.9835 75.1297 40.6883 76.3752 39.1273 76.342C37.583 76.3087 36.3542 75.0135 36.3874 73.4691C36.4206 71.958 37.6992 70.7292 39.227 70.7458C40.7879 70.7458 42.0333 72.041 42.0001 73.5854ZM39.2103 72.6056C38.7122 72.6056 38.297 73.0042 38.2804 73.5023C38.2638 74.0171 38.6956 74.4655 39.2103 74.4655C39.7085 74.4655 40.1237 74.0669 40.1403 73.5688C40.1569 73.054 39.7251 72.6056 39.2103 72.6056Z" fill="white"/>
<path d="M48.9088 73.5356C48.9088 75.0965 47.6468 76.3419 46.1024 76.3419C44.5581 76.3419 43.3127 75.0633 43.3293 73.5189C43.3459 71.9912 44.5747 70.7624 46.1024 70.7458C47.6468 70.7292 48.9088 71.9746 48.9088 73.5356ZM47.0323 73.5356C47.0323 73.0208 46.6006 72.589 46.0858 72.6056C45.5876 72.6222 45.1891 73.0208 45.1891 73.5189C45.1891 74.0503 45.6209 74.4655 46.1356 74.4489C46.6338 74.4489 47.0323 74.0337 47.0323 73.5356Z" fill="white"/>
<path d="M78.1503 63.1903C78.2998 62.0611 78.5156 61.7456 79.1301 61.7456C79.7445 61.7456 79.9769 62.0611 80.1596 63.2235C80.4917 63.2235 80.8404 63.2069 81.1726 63.2235C81.7205 63.2733 82.0859 63.6553 82.0693 64.1535C82.0693 64.635 81.6873 65.0502 81.156 65.0668C80.3091 65.1 79.4622 65.0834 78.5987 65.0834C78.2666 65.0834 77.8846 65.0834 77.868 65.5484C77.8514 66.0465 78.2167 66.0963 78.5987 66.0963C79.047 66.0963 79.512 66.0797 79.9603 66.0963C81.2058 66.1296 82.1191 66.9765 82.2685 68.1887C82.4014 69.3511 81.6873 70.3973 80.5249 70.7294C80.3921 70.7626 80.2592 70.8124 80.1264 70.8456C79.9603 71.925 79.7279 72.2737 79.1467 72.2737C78.5489 72.2903 78.2998 71.9416 78.1337 70.8124C77.8182 70.8124 77.5027 70.829 77.1706 70.8124C76.5396 70.7626 76.1742 70.3807 76.2074 69.8327C76.2407 69.3013 76.5894 68.9692 77.2038 68.9692C78.0341 68.9526 78.8644 68.9692 79.6946 68.9692C80.06 68.9692 80.3921 68.8861 80.3921 68.4544C80.3921 68.006 80.0434 67.9728 79.678 67.9728C79.1467 67.9728 78.5987 67.9894 78.0673 67.9396C76.8717 67.7901 76.0248 66.8768 75.975 65.7642C75.9085 64.552 76.6226 63.6055 77.8182 63.29C77.9344 63.2401 78.0341 63.2235 78.1503 63.1903Z" fill="white"/>
<path d="M60.7153 48.7261C60.3168 48.7261 59.9846 48.7427 59.6525 48.7261C59.1045 48.6763 58.7558 48.3109 58.7558 47.8127C58.7558 47.3146 59.1211 46.916 59.6691 46.8994C60.5326 46.8662 61.4127 46.8994 62.2762 46.8662C62.4921 46.8496 62.7744 46.75 62.9072 46.5839C63.1231 46.285 62.874 45.9031 62.4257 45.8699C61.9109 45.8366 61.3961 45.8699 60.8647 45.8532C59.6525 45.82 58.6894 44.9731 58.5565 43.8273C58.4071 42.5985 59.0879 41.5523 60.2835 41.2368C60.6157 41.1538 60.7651 41.0375 60.7817 40.6722C60.8149 40.008 61.1802 39.6593 61.7282 39.6759C62.243 39.6925 62.5585 40.0412 62.6249 40.6722C62.6416 40.7885 62.6416 40.9213 62.6582 41.1372C62.9903 41.1372 63.3058 41.1206 63.6379 41.1372C64.2523 41.1704 64.6508 41.5855 64.6176 42.1169C64.601 42.6483 64.2191 42.9804 63.6213 42.997C62.791 43.0136 61.9607 42.997 61.1304 42.997C60.7817 42.997 60.433 43.0635 60.433 43.5118C60.433 43.9768 60.7817 44.01 61.1304 44.01C61.695 44.01 62.2596 43.9934 62.8076 44.0598C63.97 44.2093 64.7837 45.106 64.8501 46.2186C64.9165 47.3644 64.2523 48.3607 63.1397 48.6596C62.7744 48.7593 62.6416 48.8755 62.6249 49.2575C62.5917 49.8885 62.2596 50.2206 61.7116 50.2206C61.1802 50.2206 60.8481 49.9051 60.7817 49.2741C60.7485 49.108 60.7319 48.9586 60.7153 48.7261Z" fill="white"/>
</g>
<defs>
<clipPath id="clip0_86_59">
<rect width="58.2695" height="63.7666" fill="white" transform="translate(32.5518 30.1279)"/>
</clipPath>
</defs>
</svg>
