<svg width="121" height="122" viewBox="0 0 121 122" fill="none" xmlns="http://www.w3.org/2000/svg">
<circle cx="60.4827" cy="60.7513" r="60.4818" fill="#FC7749"/>
<g clip-path="url(#clip0_36_8844)">
<path d="M94.7219 78.9288C94.6864 78.9981 94.6154 79.0673 94.5977 79.1539C93.9586 81.1966 92.4675 82.2872 90.2664 82.2872C83.9292 82.2872 77.5743 82.2872 71.2372 82.2872C70.9709 82.2872 70.7047 82.2872 70.3319 82.2872C70.5981 84.4338 70.8644 86.5111 71.1484 88.6577C72.2312 88.6577 73.2608 88.6577 74.3081 88.6577C75.0714 88.6577 75.5507 89.0385 75.533 89.6271C75.533 90.2157 75.0537 90.5965 74.2904 90.5965C65.2196 90.5965 56.1487 90.5965 47.0602 90.5965C46.2436 90.5965 45.7643 90.1984 45.7821 89.5925C45.7998 89.0039 46.2614 88.6577 47.0424 88.6577C48.0542 88.6577 49.0838 88.6577 50.1489 88.6577C50.4151 86.5457 50.6814 84.4684 50.9654 82.2872C50.6636 82.2872 50.3974 82.2872 50.1489 82.2872C43.8472 82.2872 37.5456 82.2872 31.2439 82.2872C28.2617 82.2872 26.5576 80.608 26.5576 77.6824C26.5576 64.803 26.5576 51.9408 26.5576 39.0614C26.5576 36.1877 28.2617 34.5259 31.2439 34.5259C50.6636 34.5259 70.0656 34.5259 89.4853 34.5259C92.6095 34.5259 93.5681 35.1318 94.7219 37.9015C94.7219 51.5773 94.7219 65.2531 94.7219 78.9288ZM60.6753 36.482C50.8234 36.482 40.9715 36.482 31.1197 36.482C29.38 36.482 28.5457 37.2957 28.5457 38.9921C28.5457 51.9235 28.5457 64.8722 28.5457 77.8036C28.5457 79.5174 29.38 80.331 31.1729 80.331C50.8056 80.331 70.4384 80.331 90.0889 80.331C91.8995 80.331 92.7338 79.5174 92.7338 77.7517C92.7338 64.8549 92.7338 51.9582 92.7338 39.0614C92.7338 37.2437 91.9172 36.4647 90.0534 36.4647C80.2548 36.4647 70.4739 36.482 60.6753 36.482ZM69.1071 88.623C68.8408 86.4765 68.5745 84.3991 68.2905 82.3045C67.0479 82.3045 65.8586 82.3045 64.616 82.3045C64.474 82.8065 64.3675 83.3085 64.2077 83.7933C63.7285 85.3513 62.2906 86.4072 60.6575 86.4245C58.9889 86.4418 57.5333 85.3513 57.054 83.7759C56.9475 83.4297 56.841 83.0662 56.7878 82.7027C56.7345 82.3564 56.5393 82.2526 56.202 82.2526C55.2967 82.2699 54.3914 82.2699 53.4683 82.2526C53.06 82.2353 52.9535 82.3911 52.918 82.7719C52.8293 83.6894 52.6873 84.6069 52.563 85.5417C52.4388 86.563 52.3145 87.5844 52.1902 88.623C57.8528 88.623 63.4444 88.623 69.1071 88.623ZM58.7759 82.3045C59.0067 83.8279 59.6812 84.5549 60.7463 84.4857C61.7758 84.4165 62.4326 83.5855 62.4504 82.3045C61.2433 82.3045 60.0362 82.3045 58.7759 82.3045Z" fill="white"/>
<path d="M52.6691 65.7552C53.0774 65.7552 53.3437 65.7552 53.6099 65.7552C59.3081 65.7552 65.0062 65.7552 70.7043 65.7552C70.9705 65.7552 71.2368 65.7553 71.5031 65.7899C72.1066 65.8937 72.4971 66.465 72.2309 67.0017C72.0356 67.3998 72.1244 67.7287 72.2131 68.0922C72.4971 69.356 72.1244 70.4119 71.0948 71.2082C70.0475 71.9872 68.8759 72.0911 67.7221 71.4852C66.5328 70.862 66.0002 69.858 66.089 68.5423C66.1067 68.2827 66.16 68.0403 66.1955 67.746C63.2133 67.746 60.2489 67.746 57.2489 67.746C57.2844 68.0576 57.3377 68.3519 57.3554 68.6462C57.4264 69.9099 56.7341 71.0524 55.5626 71.5718C54.4265 72.0911 53.0774 71.918 52.1544 71.0698C51.178 70.1696 50.8763 69.079 51.3023 67.8153C51.4266 67.4517 51.4443 67.2094 51.1603 66.8978C50.61 66.2573 50.5568 65.5302 50.9295 64.7685C51.3023 64.0241 51.6928 63.2971 52.0478 62.5527C52.1188 62.3969 52.2076 62.1719 52.1544 62.0334C51.5863 60.2157 50.965 58.4327 50.397 56.615C49.6514 54.1568 48.9591 51.664 48.2136 49.2058C48.1071 48.8423 47.7876 48.4788 47.4681 48.2364C46.7758 47.7171 45.9947 47.267 45.2669 46.7823C44.6989 46.4014 44.5569 45.8821 44.8764 45.3974C45.1782 44.93 45.7639 44.8088 46.332 45.155C47.2905 45.7436 48.2136 46.3668 49.1544 46.99C49.3142 47.0939 49.5272 47.2324 49.5804 47.3882C49.8467 48.1326 50.468 48.0979 51.0893 48.1152C58.4027 48.4268 65.7162 48.7558 73.0297 49.0674C74.2722 49.1193 74.6095 49.5174 74.361 50.7119C73.8462 53.274 73.3137 55.836 72.7812 58.398C72.4084 60.1638 71.1125 61.4275 69.2842 61.6698C66.0535 62.0853 62.8228 62.4315 59.5743 62.8124C58.101 62.9855 56.6276 63.2971 55.1543 63.2625C54.036 63.2278 53.5922 63.6952 53.2727 64.5608C53.1129 64.9416 52.8999 65.2705 52.6691 65.7552ZM50.5745 50.158C50.965 51.4563 51.3378 52.7546 51.7283 54.0356C51.7638 54.1395 51.9236 54.2953 52.0301 54.2953C53.0597 54.3126 54.107 54.3126 55.2253 54.3126C54.9768 52.9104 54.7638 51.5775 54.5152 50.1753C53.1839 50.158 51.9236 50.158 50.5745 50.158ZM56.5744 50.3138C56.7874 51.6121 56.9827 52.8239 57.1957 54.0183C57.2134 54.1222 57.3909 54.278 57.4974 54.278C58.5448 54.2953 59.5921 54.2953 60.6571 54.2953C60.6571 52.9797 60.6571 51.7506 60.6571 50.4869C59.3081 50.4349 57.9945 50.3657 56.5744 50.3138ZM56.3791 61.1678C56.0951 59.5406 55.8288 57.9306 55.5448 56.3034C54.4797 56.3034 53.4502 56.3034 52.4384 56.3034C52.4206 56.3726 52.4029 56.3899 52.4029 56.4073C52.6869 57.4113 52.9887 58.398 53.2727 59.4021C53.894 61.5313 53.894 61.5313 56.1484 61.2371C56.2016 61.2371 56.2549 61.2024 56.3791 61.1678ZM62.7518 54.2953C63.8523 54.2953 64.8997 54.3126 65.9292 54.278C66.0712 54.278 66.302 54.1395 66.3197 54.0356C66.444 52.945 66.5328 51.8718 66.6393 50.6773C65.2902 50.6773 64.0476 50.6773 62.7518 50.6773C62.7518 51.8544 62.7518 53.0316 62.7518 54.2953ZM60.6571 60.7177C60.6571 59.2117 60.6571 57.7575 60.6571 56.2688C59.6098 56.2688 58.6335 56.2688 57.5684 56.2688C57.8347 57.8614 58.101 59.4194 58.385 60.9774C59.2015 60.8908 59.8938 60.8043 60.6571 60.7177ZM62.7518 56.2688C62.7518 57.6883 62.7518 59.0559 62.7518 60.4581C63.231 60.4061 63.6748 60.3715 64.1186 60.3369C65.7162 60.1811 65.734 60.1811 65.9115 58.6404C66.0002 57.8614 66.0535 57.0824 66.1245 56.2688C64.9529 56.2688 63.8878 56.2688 62.7518 56.2688ZM68.3256 54.2953C69.3729 54.2953 70.3315 54.3126 71.3078 54.278C71.4143 54.278 71.5918 54.0876 71.6273 53.9664C71.8403 52.997 72.0356 52.0449 72.2486 50.9716C71.006 50.9716 69.8345 50.9716 68.6274 50.9716C68.5209 52.0449 68.4321 53.1355 68.3256 54.2953ZM71.1125 56.3034C70.1007 56.3034 69.1244 56.3034 68.1304 56.3034C68.0239 57.4286 67.9351 58.5019 67.8286 59.5752C67.8286 59.6617 67.8463 59.731 67.8641 59.8175C69.9942 59.9387 70.6865 59.1943 71.1125 56.3034ZM70.3137 68.8193C70.3137 68.2134 69.799 67.7287 69.1777 67.7287C68.5564 67.7287 68.0949 68.1788 68.0771 68.7847C68.0594 69.4079 68.5386 69.9099 69.1777 69.9272C69.7812 69.9272 70.296 69.4252 70.3137 68.8193ZM55.3496 68.8193C55.3496 68.1961 54.8703 67.7287 54.2135 67.7287C53.6099 67.7287 53.1129 68.1961 53.0952 68.7847C53.0774 69.3906 53.5922 69.9099 54.1957 69.9272C54.8348 69.9272 55.3496 69.4252 55.3496 68.8193Z" fill="white"/>
<path d="M32.8411 40.6363C32.8411 52.5291 32.8411 64.3006 32.8411 76.176C33.2139 76.176 33.5689 76.1587 33.9062 76.176C34.5097 76.1933 34.9002 76.5569 34.9357 77.0589C34.9712 77.5782 34.6162 78.0456 34.0482 78.0802C33.2671 78.1322 32.4861 78.1322 31.7228 78.0802C31.1725 78.0456 30.8707 77.6648 30.8175 77.1281C30.7997 76.955 30.8175 76.7819 30.8175 76.6088C30.8175 64.4737 30.8175 52.3386 30.8175 40.2036C30.8175 38.9398 31.0837 38.6802 32.3796 38.6802C49.0834 38.6802 65.7872 38.6802 82.491 38.6802C83.556 38.6802 84.0531 39.0091 84.0531 39.6669C84.0353 40.3247 83.556 40.619 82.4732 40.619C66.2309 40.619 49.9887 40.619 33.7641 40.619C33.4624 40.6363 33.1784 40.6363 32.8411 40.6363Z" fill="white"/>
<path d="M88.4378 76.1761C88.4378 64.3007 88.4378 52.5119 88.4378 40.6365C88.065 40.6365 87.6923 40.6538 87.3372 40.6365C86.7514 40.6018 86.3609 40.221 86.3432 39.7017C86.3254 39.1823 86.6982 38.7322 87.2662 38.7149C88.0118 38.6803 88.7751 38.6803 89.5206 38.7149C90.0709 38.7496 90.3904 39.1131 90.4437 39.6497C90.4614 39.8402 90.4437 40.0306 90.4437 40.2383C90.4437 52.3561 90.4437 64.4738 90.4437 76.5743C90.4437 77.8726 90.1774 78.115 88.8461 78.115C72.16 78.115 55.474 78.115 38.8057 78.115C38.5217 78.115 38.2199 78.115 37.9536 78.0457C37.4566 77.9246 37.2081 77.561 37.2436 77.0763C37.2791 76.5743 37.5808 76.2281 38.1311 76.1761C38.3974 76.1415 38.6637 76.1588 38.9299 76.1588C55.1189 76.1588 71.3257 76.1588 87.5147 76.1588C87.781 76.1761 88.065 76.1761 88.4378 76.1761Z" fill="white"/>
</g>
<defs>
<clipPath id="clip0_36_8844">
<rect width="68.1643" height="56.0706" fill="white" transform="translate(26.5576 34.5259)"/>
</clipPath>
</defs>
</svg>
