<svg width="122" height="122" viewBox="0 0 122 122" fill="none" xmlns="http://www.w3.org/2000/svg">
<circle cx="60.9788" cy="60.7513" r="60.4818" fill="#FC7749"/>
<g clip-path="url(#clip0_85_58)">
<path d="M93.0187 74.4989C92.6751 74.8973 92.2972 75.261 91.6959 75.0185C91.1118 74.776 91.0775 74.2738 91.0775 73.7195C91.0775 65.5102 91.0775 57.3182 91.0775 49.1089C91.0775 48.8491 91.0775 48.5894 91.0775 48.2949C70.3774 48.2949 49.7117 48.2949 28.9772 48.2949C28.9772 48.5201 28.9772 48.7625 28.9772 48.9877C28.9772 52.6421 28.9772 56.2964 28.9772 59.9681C28.9772 60.1759 28.9944 60.4011 28.96 60.6089C28.857 61.1112 28.5306 61.4056 28.0152 61.4229C27.4999 61.4229 27.1735 61.1285 27.0704 60.6262C27.0189 60.4184 27.0532 60.1932 27.0532 59.9854C27.0532 53.0577 27.0532 46.13 27.0532 39.2023C27.0532 36.2581 28.7539 34.5608 31.657 34.5608C34.5602 34.5608 37.4462 34.5608 40.3494 34.5608C40.5555 34.5608 40.7788 34.5608 40.985 34.5781C41.5175 34.6474 41.7924 34.9938 41.8095 35.496C41.8267 35.9983 41.5519 36.362 41.0193 36.4486C40.7617 36.5005 40.504 36.5005 40.2463 36.5005C37.3431 36.5005 34.4571 36.5005 31.554 36.5005C29.8361 36.5005 28.9772 37.3665 28.9772 39.0811C28.9772 41.246 28.9772 43.4109 28.9772 45.5758C28.9772 45.7836 28.9772 45.9915 28.9772 46.2513C49.6945 46.2513 70.343 46.2513 91.0775 46.2513C91.0775 45.9915 91.0775 45.7663 91.0775 45.5412C91.0775 43.4455 91.0775 41.3499 91.0775 39.237C91.0775 37.3319 90.2701 36.5005 88.3805 36.5005C78.039 36.5005 67.6804 36.5005 57.3389 36.5005C53.5596 36.5005 49.7804 36.5005 46.0011 36.5005C45.7606 36.5005 45.5201 36.5005 45.2968 36.4832C44.7127 36.3966 44.3863 36.0329 44.4207 35.4787C44.455 34.9072 44.7814 34.6127 45.3311 34.5781C45.5716 34.5608 45.795 34.5608 46.0355 34.5608C59.9329 34.5608 73.8131 34.5954 87.7105 34.5261C90.356 34.5088 92.2113 35.3401 93.0187 37.99C93.0187 50.1654 93.0187 62.3235 93.0187 74.4989Z" fill="white"/>
<path d="M93.0182 85.9296C92.7262 86.9687 92.2967 87.904 91.4206 88.5967C90.5273 89.3068 89.5138 89.5147 88.3972 89.5147C86.0437 89.5147 83.6731 89.5147 81.3196 89.5147C64.8454 89.5147 48.3884 89.5147 31.9143 89.5147C31.2786 89.5147 30.6087 89.48 30.0074 89.3068C28.2724 88.8046 27.0527 87.2112 27.0527 85.41C27.0527 78.6555 27.0527 71.9183 27.0527 65.1812C27.0527 64.4711 27.4307 64.0554 28.0147 64.0381C28.616 64.0381 28.9767 64.4711 28.9767 65.2331C28.9767 71.7451 28.9767 78.2572 28.9767 84.7865C28.9767 86.709 29.8013 87.5403 31.7253 87.5403C50.6045 87.5403 69.4665 87.5403 88.3456 87.5403C90.2696 87.5403 91.077 86.709 91.077 84.7692C91.077 82.8641 91.077 80.959 91.077 79.0539C91.077 78.517 91.0942 77.9801 91.6783 77.7549C92.2452 77.5124 92.6403 77.8588 93.001 78.2572C93.0182 80.8204 93.0182 83.3663 93.0182 85.9296Z" fill="white"/>
<path d="M42.2555 55.3955C44.7292 55.3955 47.1857 55.3955 49.6594 55.3955C51.257 55.3955 52.1675 56.3134 52.1675 57.9241C52.1675 60.7818 52.1675 63.6395 52.1675 66.4971C52.1675 68.1078 51.257 69.0257 49.6594 69.0257C44.6776 69.0257 39.6959 69.0257 34.7141 69.0257C33.1165 69.0257 32.2061 68.1078 32.2061 66.4971C32.2061 63.6395 32.2061 60.7818 32.2061 57.9241C32.2061 56.2961 33.1165 55.3955 34.7141 55.3955C37.2394 55.3955 39.7474 55.3955 42.2555 55.3955ZM50.2263 65.3194C50.2435 65.1289 50.2607 64.973 50.2607 64.8345C50.2607 62.583 50.2435 60.3315 50.2778 58.08C50.2778 57.5085 50.1061 57.3353 49.5392 57.3353C46.7047 57.3526 43.8703 57.3526 41.0358 57.3526C40.8812 57.3526 40.7094 57.3872 40.5376 57.4045C40.7609 59.3097 40.28 60.9377 38.9572 62.2539C37.6345 63.5702 36.0025 64.0032 34.1644 63.7953C34.1644 64.7825 34.1472 65.7178 34.1816 66.6357C34.1816 66.7916 34.4393 67.0513 34.5939 67.0687C35.1264 67.086 35.6761 67.1033 36.1915 66.9821C38.7854 66.3586 40.572 64.7652 41.7745 62.3752C42.0322 61.8556 42.496 61.2494 42.9942 61.0589C44.3513 60.574 46.2581 60.6259 46.9624 62.4444C47.5121 63.8992 48.749 64.7479 50.2263 65.3194ZM49.1956 67.0513C48.8864 66.8782 48.7146 66.7742 48.5256 66.6876C47.0998 65.9429 45.966 64.8691 45.2617 63.4143C45.0212 62.9294 44.7464 62.7908 44.231 62.7735C43.6985 62.7562 43.561 63.0506 43.3549 63.4316C42.977 64.1244 42.5647 64.8172 42.0837 65.4407C41.6542 66.0122 41.1045 66.4971 40.572 67.0513C43.4236 67.0513 46.2237 67.0513 49.1956 67.0513ZM34.1472 61.7517C35.573 62.0807 36.7755 61.7517 37.7375 60.6952C38.5965 59.7426 38.8541 58.6169 38.4934 57.3526C37.1706 57.3526 35.8994 57.3353 34.6454 57.3699C34.4736 57.3699 34.1644 57.6297 34.1644 57.7856C34.13 59.0845 34.1472 60.4008 34.1472 61.7517Z" fill="white"/>
<path d="M64.6047 70.6019C67.0956 70.6019 69.5865 70.6019 72.0774 70.6019C73.6922 70.6019 74.5854 71.5198 74.5854 73.1305C74.5854 76.0055 74.5854 78.8805 74.5854 81.7728C74.5854 83.2969 73.6578 84.2494 72.1461 84.2494C67.13 84.2494 62.0967 84.2494 57.0806 84.2494C55.5517 84.2494 54.6412 83.3142 54.624 81.7901C54.624 78.8978 54.624 75.9882 54.624 73.0959C54.624 71.5544 55.5517 70.6365 57.0634 70.6365C59.5886 70.5846 62.0967 70.6019 64.6047 70.6019ZM64.9827 78.2743C65.6354 77.4083 66.271 76.5943 66.8895 75.763C67.7999 74.5853 68.865 74.568 69.8098 75.7284C70.6344 76.7329 71.4418 77.7374 72.2492 78.7419C72.3522 78.8632 72.3866 79.0364 72.4553 79.1922C72.524 79.1403 72.5927 79.071 72.6443 79.019C72.6443 77.1312 72.6271 75.2608 72.6615 73.373C72.6786 72.7148 72.4897 72.5243 71.8197 72.5243C66.9925 72.5416 62.1654 72.5416 57.3382 72.5416C57.218 72.5416 57.0634 72.4897 56.9603 72.559C56.8057 72.6456 56.5652 72.8014 56.5652 72.94C56.5308 74.7065 56.548 76.4558 56.548 78.3609C57.5959 77.5123 58.5235 76.7675 59.4512 76.0228C60.396 75.2608 61.0144 75.2434 61.9764 75.9882C62.99 76.7502 63.9863 77.5123 64.9827 78.2743ZM60.7567 77.4776C59.4168 78.5514 58.0769 79.5733 56.84 80.699C56.5824 80.9415 56.5996 81.5476 56.6167 81.9979C56.6167 82.1019 57.0806 82.2751 57.3382 82.2751C58.7125 82.3097 60.0868 82.2924 61.4611 82.2751C61.6844 82.2751 61.9936 82.1885 62.1139 82.0153C62.6979 81.3225 63.2133 80.5951 63.7973 79.833C62.7838 79.0364 61.7703 78.257 60.7567 77.4776ZM72.6271 82.2577C71.1497 80.4392 69.7755 78.7592 68.3668 77.0273C67.0269 78.7939 65.7385 80.4912 64.3986 82.2577C67.1643 82.2577 69.7926 82.2577 72.6271 82.2577Z" fill="white"/>
<path d="M73.1426 38.5092C77.0937 38.5092 81.0448 38.4918 84.9958 38.5092C87.0916 38.5265 88.5002 40.5528 87.7272 42.4753C87.2634 43.653 86.3529 44.3111 85.0989 44.3284C83.0203 44.3631 80.9417 44.3457 78.8459 44.3457C78.1588 44.3457 77.7293 43.9301 77.7465 43.3412C77.7637 42.7697 78.1759 42.406 78.8287 42.406C80.7527 42.3887 82.6939 42.406 84.6179 42.406C84.8069 42.406 85.013 42.4233 85.202 42.3713C85.7001 42.2328 85.975 41.9037 85.9578 41.3842C85.9406 40.8646 85.6314 40.5528 85.1161 40.4662C84.9443 40.4316 84.7725 40.4489 84.6007 40.4489C76.9391 40.4489 69.2775 40.4489 61.6159 40.4489C61.4613 40.4489 61.3067 40.4489 61.1692 40.4489C60.6023 40.5009 60.2416 40.8819 60.2244 41.4015C60.2244 41.921 60.5852 42.3194 61.1349 42.3887C61.3238 42.406 61.5128 42.3887 61.7189 42.3887C65.7044 42.3887 69.7069 42.3887 73.6924 42.3887C73.8985 42.3887 74.1218 42.3713 74.328 42.406C74.809 42.5099 75.0838 42.8043 75.1182 43.3066C75.1525 43.8088 74.8949 44.1379 74.4482 44.2938C74.2936 44.3457 74.1046 44.3457 73.9329 44.3457C69.7069 44.3457 65.481 44.3631 61.2551 44.3457C59.3483 44.3457 58.0427 42.7697 58.3348 40.8992C58.5581 39.5137 59.7606 38.5092 61.2723 38.5092C65.2405 38.4918 69.1916 38.5092 73.1426 38.5092Z" fill="white"/>
<path d="M42.2047 74.4987C39.9028 74.4987 37.618 74.4987 35.3161 74.4987C34.629 74.4987 34.2167 74.1697 34.1652 73.6328C34.0964 73.0266 34.5431 72.5763 35.2474 72.559C36.553 72.5416 37.8585 72.559 39.1813 72.559C42.4452 72.559 45.7091 72.559 48.973 72.559C49.2479 72.559 49.6258 72.559 49.7632 72.7148C50.0037 72.9919 50.2271 73.4076 50.2099 73.754C50.1755 74.2909 49.7117 74.516 49.1792 74.516C47.427 74.516 45.6576 74.516 43.9054 74.516C43.3213 74.4987 42.7544 74.4987 42.2047 74.4987Z" fill="white"/>
<path d="M64.6055 63.1896C62.3035 63.1896 60.0188 63.1896 57.7169 63.1896C57.0126 63.1896 56.5831 62.8259 56.5659 62.2544C56.5487 61.6655 56.9782 61.2672 57.6653 61.2499C59.1083 61.2326 60.5342 61.2499 61.9772 61.2499C65.1036 61.2499 68.2473 61.2499 71.3738 61.2672C71.683 61.2672 72.0953 61.3018 72.2671 61.4924C72.4904 61.7348 72.645 62.1851 72.5935 62.5142C72.5248 63.0164 72.0781 63.207 71.5628 63.207C69.7247 63.207 67.8694 63.207 66.0313 63.207C65.5503 63.1896 65.0865 63.1896 64.6055 63.1896Z" fill="white"/>
<path d="M38.9749 51.499C40.813 51.499 42.6682 51.499 44.5063 51.499C45.2966 51.499 45.7604 51.88 45.726 52.5035C45.7088 53.0924 45.2622 53.4388 44.5063 53.4388C40.813 53.4388 37.1196 53.4388 33.4262 53.4388C32.636 53.4388 32.1894 53.0578 32.2065 52.4343C32.2237 51.8454 32.6704 51.499 33.4262 51.499C35.2815 51.499 37.1196 51.499 38.9749 51.499Z" fill="white"/>
<path d="M35.6078 38.5098C37.2054 38.5098 38.5282 39.8607 38.511 41.454C38.4938 43.0647 37.1539 44.381 35.5735 44.3463C33.9931 44.329 32.739 43.0301 32.7218 41.4367C32.7047 39.8087 33.9931 38.5098 35.6078 38.5098ZM35.5735 42.3893C36.106 42.4066 36.5698 41.939 36.5527 41.4021C36.5527 40.8998 36.106 40.4668 35.6078 40.4495C35.0925 40.4322 34.663 40.8479 34.6458 41.3674C34.6115 41.9217 35.0409 42.3893 35.5735 42.3893Z" fill="white"/>
<path d="M40.4346 41.4367C40.4346 39.8087 41.723 38.5098 43.3206 38.5098C44.9182 38.5098 46.2409 39.8433 46.2237 41.454C46.2065 43.0301 44.901 44.3463 43.3377 44.3463C41.7573 44.3637 40.4346 43.0474 40.4346 41.4367ZM44.2826 41.4367C44.2826 40.8998 43.8359 40.4495 43.2862 40.4668C42.7708 40.4842 42.3586 40.8998 42.3586 41.4194C42.3586 41.939 42.7537 42.372 43.269 42.4066C43.8016 42.4239 44.2826 41.9563 44.2826 41.4367Z" fill="white"/>
<path d="M48.1652 41.3844C48.1824 39.7564 49.488 38.4921 51.1027 38.5095C52.666 38.5268 53.9544 39.8604 53.9544 41.4364C53.9544 43.0298 52.6144 44.3634 51.034 44.346C49.4364 44.3287 48.148 43.0125 48.1652 41.3844ZM51.0684 42.389C51.6009 42.3716 52.0476 41.8867 52.0132 41.3671C51.9788 40.8475 51.5494 40.4492 51.034 40.4492C50.4843 40.4492 50.072 40.8995 50.1064 41.4537C50.1236 41.9906 50.5702 42.4063 51.0684 42.389Z" fill="white"/>
<path d="M40.2463 82.2928C38.6143 82.2928 36.9824 82.2928 35.3504 82.2928C34.5946 82.2928 34.1479 81.9291 34.1479 81.3402C34.1307 80.7167 34.5946 80.353 35.3848 80.353C38.6487 80.353 41.9126 80.353 45.1765 80.353C45.9324 80.353 46.379 80.7167 46.379 81.3056C46.3962 81.9291 45.9324 82.2928 45.1422 82.2928C43.5102 82.2928 41.8782 82.2928 40.2463 82.2928Z" fill="white"/>
<path d="M82.1446 57.3528C80.6844 57.3528 79.2243 57.3528 77.7641 57.3528C76.9739 57.3528 76.5272 56.9718 76.5444 56.3483C76.5616 55.7595 77.0082 55.4131 77.7641 55.4131C80.6844 55.4131 83.6048 55.4131 86.5251 55.4131C87.3153 55.4131 87.7792 55.7941 87.7448 56.4176C87.7276 57.0065 87.281 57.3528 86.5251 57.3528C85.065 57.3528 83.6048 57.3528 82.1446 57.3528Z" fill="white"/>
<path d="M82.1446 80.3353C80.6844 80.3353 79.2243 80.3353 77.7641 80.3353C76.9739 80.3353 76.5272 79.9542 76.5444 79.3307C76.5616 78.7419 77.0082 78.3955 77.7641 78.3955C80.6844 78.3955 83.6048 78.3955 86.5251 78.3955C87.3153 78.3955 87.7792 78.7765 87.7448 79.4C87.7276 79.9889 87.281 80.3353 86.5251 80.3353C85.0478 80.3353 83.6048 80.3353 82.1446 80.3353Z" fill="white"/>
<path d="M67.3188 57.3529C68.7103 57.3529 70.1017 57.3529 71.4932 57.3529C72.2318 57.3529 72.6785 57.7513 72.6613 58.3401C72.6441 58.9116 72.2147 59.2927 71.5103 59.2927C68.7102 59.2927 65.893 59.2927 63.0929 59.2927C62.337 59.2927 61.9247 58.9116 61.9419 58.3055C61.9591 57.7166 62.3714 57.3529 63.0757 57.3529C64.4843 57.3356 65.893 57.3529 67.3188 57.3529Z" fill="white"/>
<path d="M61.2029 67.0862C60.052 67.0862 58.8838 67.0862 57.7329 67.0862C56.9942 67.0862 56.5476 66.6879 56.5819 66.0817C56.5991 65.5102 57.0286 65.1465 57.7329 65.1465C60.0348 65.1465 62.3195 65.1465 64.6215 65.1465C65.343 65.1465 65.7552 65.4929 65.7724 66.0817C65.7896 66.7052 65.3601 67.0862 64.6215 67.0862C63.4705 67.0862 62.3367 67.0862 61.2029 67.0862Z" fill="white"/>
<path d="M80.786 84.2322C79.7552 84.2322 78.7245 84.2322 77.6938 84.2322C76.9551 84.2322 76.5085 83.8339 76.5429 83.2277C76.56 82.6562 76.9895 82.2925 77.6938 82.2925C79.7552 82.2925 81.8167 82.2925 83.8781 82.2925C84.6168 82.2925 85.0634 82.6908 85.0462 83.297C85.029 83.8685 84.5996 84.2322 83.8953 84.2322C82.8474 84.2322 81.8167 84.2322 80.786 84.2322Z" fill="white"/>
<path d="M38.2021 76.4385C39.2156 76.4385 40.212 76.4385 41.2255 76.4385C41.9126 76.4385 42.3593 76.8368 42.3593 77.4084C42.3593 77.9799 41.9126 78.3782 41.2255 78.3782C39.2328 78.3782 37.2401 78.3955 35.2474 78.3782C34.5602 78.3782 34.1308 77.9626 34.148 77.3737C34.1651 76.8195 34.5774 76.4385 35.2474 76.4385C36.2266 76.4385 37.2229 76.4385 38.2021 76.4385Z" fill="white"/>
<path d="M79.619 51.4989C80.2546 51.4989 80.9074 51.4816 81.543 51.4989C82.1443 51.5162 82.5565 51.8973 82.5737 52.4341C82.5909 52.9884 82.1786 53.4213 81.543 53.4387C80.2203 53.456 78.8803 53.456 77.5576 53.4387C76.922 53.4387 76.5097 53.0057 76.5269 52.4341C76.5441 51.8973 76.9563 51.5162 77.5576 51.4989C78.2447 51.4816 78.9319 51.4989 79.619 51.4989Z" fill="white"/>
<path d="M79.5507 72.5416C78.9151 72.5416 78.2623 72.5589 77.6267 72.5416C76.9739 72.5243 76.5616 72.1433 76.5444 71.5891C76.5272 71.0175 76.9739 70.6019 77.6438 70.6019C78.9322 70.5845 80.2206 70.5845 81.509 70.6019C82.1618 70.6019 82.5741 71.0002 82.5913 71.5544C82.6084 72.1433 82.1618 72.5416 81.4918 72.5416C80.839 72.5589 80.1863 72.5416 79.5507 72.5416Z" fill="white"/>
<path d="M79.5674 63.1893C80.203 63.1893 80.8558 63.172 81.4914 63.1893C82.1442 63.2067 82.5737 63.5704 82.5909 64.1246C82.608 64.7134 82.1786 65.1291 81.4914 65.1291C80.203 65.1464 78.9147 65.1464 77.6263 65.1291C76.9563 65.1291 76.5097 64.7134 76.5268 64.1246C76.544 63.5704 76.9563 63.2067 77.6263 63.1893C78.2791 63.1893 78.9147 63.1893 79.5674 63.1893Z" fill="white"/>
<path d="M79.5679 61.2325C78.9323 61.2325 78.2795 61.2498 77.6439 61.2325C76.9567 61.2152 76.5273 60.8169 76.5444 60.228C76.5616 59.6738 76.9739 59.2928 77.6439 59.2928C78.9323 59.2755 80.2206 59.2755 81.509 59.2928C82.1618 59.2928 82.5913 59.6738 82.6085 60.228C82.6256 60.8169 82.1962 61.2152 81.509 61.2325C80.8391 61.2498 80.2035 61.2325 79.5679 61.2325Z" fill="white"/>
<path d="M47.2202 78.3785C46.6017 78.3785 45.9833 78.3958 45.3477 78.3785C44.6949 78.3612 44.2998 77.9802 44.2998 77.4086C44.2998 76.8371 44.6949 76.4388 45.3477 76.4388C46.6361 76.4215 47.9245 76.4215 49.2129 76.4388C49.8141 76.4388 50.2264 76.8371 50.2436 77.374C50.2607 77.9282 49.8485 78.3612 49.2129 78.3785C48.5429 78.3958 47.8901 78.3785 47.2202 78.3785Z" fill="white"/>
<path d="M70.2225 65.1464C70.7207 65.1464 71.2017 65.1291 71.6998 65.1464C72.2839 65.181 72.679 65.5967 72.6618 66.1336C72.6447 66.6531 72.2667 67.0515 71.6998 67.0688C70.6863 67.0861 69.69 67.0861 68.6764 67.0688C68.0752 67.0515 67.6973 66.6358 67.7144 66.0816C67.7316 65.562 68.0924 65.1637 68.6592 65.1464C69.1918 65.1291 69.7071 65.1464 70.2225 65.1464Z" fill="white"/>
<path d="M85.3562 74.4989C85.82 74.4989 86.301 74.4816 86.7648 74.4989C87.3317 74.5335 87.7096 74.9146 87.7268 75.4341C87.744 75.971 87.3489 76.4213 86.7648 76.4387C85.8544 76.4733 84.9267 76.456 83.9991 76.4387C83.415 76.4213 83.0371 75.9884 83.0543 75.4341C83.0715 74.9146 83.4322 74.5509 83.9991 74.4989C84.0334 74.4989 84.085 74.4989 84.1193 74.4989C84.5488 74.4989 84.9611 74.4989 85.3562 74.4989Z" fill="white"/>
<path d="M78.7262 76.4386C78.3139 76.4386 77.9016 76.4559 77.5065 76.4386C76.9224 76.4039 76.5273 75.9883 76.5445 75.4341C76.5617 74.9145 76.9396 74.5161 77.5065 74.4988C78.3826 74.4815 79.2587 74.4815 80.152 74.4988C80.7532 74.5161 81.1311 74.9491 81.114 75.486C81.0968 76.0056 80.7189 76.3866 80.152 76.4213C79.671 76.4559 79.2071 76.4386 78.7262 76.4386Z" fill="white"/>
<path d="M58.3348 57.3525C58.5925 57.3525 58.8502 57.3179 59.1078 57.3525C59.6576 57.4218 59.9668 57.7682 59.9668 58.3051C59.9668 58.842 59.6404 59.2057 59.1078 59.2576C58.5753 59.3096 58.0428 59.2923 57.4931 59.2576C56.9434 59.223 56.5654 58.8073 56.5654 58.2877C56.5654 57.7682 56.9434 57.3698 57.4931 57.3179C57.7851 57.3352 58.06 57.3525 58.3348 57.3525Z" fill="white"/>
<path d="M86.1122 61.2322C85.8546 61.2322 85.5969 61.2669 85.3392 61.2322C84.841 61.1456 84.5318 60.8166 84.5146 60.297C84.5146 59.7428 84.8239 59.3964 85.3564 59.3271C85.8202 59.2752 86.3012 59.2925 86.765 59.3098C87.3147 59.3444 87.7099 59.7428 87.7099 60.245C87.727 60.7819 87.3319 61.1976 86.7307 61.2322C86.5417 61.2496 86.3356 61.2322 86.1122 61.2322Z" fill="white"/>
</g>
<defs>
<clipPath id="clip0_85_58">
<rect width="65.9655" height="54.9712" fill="white" transform="translate(27.0527 34.5259)"/>
</clipPath>
</defs>
</svg>
