<svg width="111" height="111" viewBox="0 0 111 111" fill="none" xmlns="http://www.w3.org/2000/svg">
<circle cx="55.0122" cy="55.8535" r="55.0122" fill="#FC7749"/>
<g clip-path="url(#clip0_36_8842)">
<path d="M32.8722 86C32.6886 85.9273 32.5049 85.8426 32.3213 85.7699C31.0113 85.2008 30.2767 84.2078 30.191 82.791C30.1665 82.343 30.1665 81.907 30.191 81.459C30.2155 80.9383 30.595 80.575 31.0848 80.5629C31.5867 80.5508 31.9907 80.9262 32.0152 81.4832C32.0397 81.8707 32.0152 82.2461 32.0275 82.6336C32.0642 83.566 32.6763 84.1594 33.619 84.1957C33.766 84.1957 33.9006 84.1957 34.0475 84.1957C48.1269 84.1957 62.2062 84.1957 76.2855 84.1957C77.7914 84.1957 78.3056 83.6871 78.3056 82.2098C78.3056 72.7039 78.3056 63.198 78.3056 53.6922C78.3056 53.4742 78.3056 53.2563 78.3056 52.9777C78.073 52.9656 77.8771 52.9535 77.6812 52.9535C72.931 52.9535 68.1685 52.9535 63.4183 52.9414C63.0387 52.9414 62.8061 53.0262 62.6102 53.3895C62.1328 54.2734 61.3247 54.7457 60.3086 54.7578C56.8805 54.782 53.4525 54.782 50.0245 54.7578C48.9594 54.7457 48.1758 54.2129 47.6372 53.3168C47.5392 53.1473 47.2821 52.9777 47.0985 52.9777C42.1401 52.9656 37.1817 52.9656 32.2233 52.9656C32.1866 52.9656 32.1499 52.9777 32.0152 53.002C32.0152 53.2199 32.0152 53.45 32.0152 53.6801C32.0152 61.3695 32.0152 69.059 32.0152 76.7484C32.0152 76.9543 32.0397 77.1602 32.003 77.3539C31.905 77.8504 31.5867 78.1531 31.0725 78.141C30.5828 78.1289 30.289 77.8383 30.2033 77.366C30.1665 77.148 30.191 76.918 30.191 76.7C30.1788 60.534 30.2033 44.3801 30.1543 28.2383C30.1543 26.1555 30.8032 24.6902 32.8722 24C47.7229 24 62.5857 24 77.4364 24C79.5054 24.6902 80.1543 26.1555 80.1543 28.2383C80.1176 46.1723 80.1298 64.1184 80.1298 82.0523C80.1298 82.2945 80.1421 82.5367 80.1298 82.7789C80.0196 84.1957 79.3095 85.1887 77.9873 85.7578C77.8037 85.8305 77.62 85.9152 77.4364 85.9879C62.5857 86 47.7229 86 32.8722 86ZM32.0152 30.6602C32.3458 30.6602 32.6151 30.6602 32.8722 30.6602C46.7189 30.6602 60.5779 30.6602 74.4246 30.6602C75.3796 30.6602 75.8081 30.9387 75.8326 31.5441C75.857 32.1738 75.3918 32.4766 74.4246 32.4766C60.5534 32.4766 46.6822 32.4766 32.811 32.4766C32.5539 32.4766 32.2968 32.4766 32.0397 32.4766C32.0397 38.7371 32.0397 44.9008 32.0397 51.1008C32.1621 51.1129 32.2601 51.125 32.358 51.125C37.2552 51.125 42.1523 51.125 47.0495 51.1129C47.2454 51.1129 47.527 50.9312 47.6372 50.7496C48.1758 49.8777 48.9349 49.3328 49.9755 49.3207C53.428 49.2965 56.8683 49.2965 60.3208 49.3207C61.337 49.3328 62.1328 49.8051 62.6102 50.7012C62.8061 51.0766 63.051 51.1371 63.4305 51.1371C68.1807 51.125 72.931 51.125 77.6935 51.125C77.8894 51.125 78.0852 51.125 78.3056 51.125C78.3056 50.8223 78.3056 50.5922 78.3056 50.3742C78.3056 42.8422 78.3056 35.3223 78.3056 27.7902C78.3056 26.3129 77.7914 25.8043 76.2733 25.8043C62.194 25.8043 48.1269 25.8043 34.0475 25.8043C33.8639 25.8043 33.6803 25.7922 33.4966 25.8043C32.6763 25.8648 32.0642 26.434 32.0397 27.2453C31.9907 28.3594 32.0152 29.4734 32.0152 30.6602ZM55.1543 51.125C53.5382 51.125 51.9344 51.125 50.3184 51.125C49.596 51.125 49.1798 51.452 49.1553 51.9969C49.1308 52.5781 49.5715 52.9293 50.3184 52.9293C53.5382 52.9293 56.7581 52.9293 59.978 52.9293C60.7248 52.9293 61.1656 52.566 61.1411 51.9969C61.1166 51.4398 60.7003 51.125 59.978 51.125C58.3742 51.125 56.7704 51.125 55.1543 51.125Z" fill="white"/>
<path d="M44.8824 82.3672C42.5808 82.3672 40.2791 82.3672 37.9652 82.3672C36.7532 82.3672 36.1777 81.7859 36.1777 80.575C36.1777 78.4559 36.1777 76.3367 36.1777 74.2176C36.1777 73.0188 36.7654 72.4375 37.9774 72.4375C42.5808 72.4375 47.1963 72.4375 51.7997 72.4375C52.975 72.4375 53.5627 73.0309 53.5627 74.1934C53.5627 76.3367 53.5627 78.468 53.5627 80.6113C53.5627 81.7738 52.9628 82.3672 51.7997 82.3672C49.498 82.3672 47.1841 82.3672 44.8824 82.3672ZM38.0509 80.5508C38.5773 80.5508 39.0671 80.5266 39.5445 80.5629C39.9853 80.5871 40.3036 80.466 40.6097 80.1391C41.3198 79.3883 42.0666 78.6738 42.8134 77.9473C44.0744 76.7242 45.6782 76.7121 46.9392 77.9352C47.7228 78.698 48.4941 79.473 49.2776 80.2359C49.4001 80.357 49.5592 80.5145 49.7184 80.5266C50.3795 80.5629 51.0406 80.5387 51.6895 80.5387C51.6895 78.3953 51.6895 76.3246 51.6895 74.2781C47.1229 74.2781 42.6053 74.2781 38.0509 74.2781C38.0509 76.3609 38.0509 78.4074 38.0509 80.5508ZM42.8011 80.5145C44.2336 80.5145 45.5313 80.5145 46.9392 80.5145C46.4006 79.9938 45.9598 79.5215 45.4823 79.0977C45.1028 78.7586 44.6498 78.7586 44.2703 79.0977C43.7806 79.5215 43.3398 79.9938 42.8011 80.5145Z" fill="white"/>
<path d="M65.4386 82.3672C63.1369 82.3672 60.8352 82.3672 58.5213 82.3672C57.346 82.3672 56.7461 81.7738 56.7461 80.6234C56.7461 78.468 56.7461 76.3125 56.7461 74.1449C56.7461 73.0309 57.3582 72.4375 58.4846 72.4375C63.1124 72.4375 67.7402 72.4375 72.368 72.4375C73.5066 72.4375 74.1188 73.0309 74.1188 74.1449C74.131 76.3246 74.131 78.5043 74.1188 80.684C74.1188 81.7617 73.5066 82.3672 72.4048 82.3672C70.0909 82.3672 67.7647 82.3672 65.4386 82.3672ZM58.607 80.5508C59.1457 80.5508 59.6232 80.5266 60.1129 80.5629C60.5536 80.5992 60.872 80.4539 61.178 80.1391C61.8881 79.3883 62.6349 78.6738 63.3817 77.9473C64.6428 76.7242 66.2343 76.7242 67.5076 77.9473C68.2911 78.7102 69.0625 79.4852 69.846 80.248C69.9684 80.3691 70.1276 80.5266 70.2867 80.5266C70.9479 80.5629 71.609 80.5387 72.2701 80.5387C72.2701 78.4074 72.2701 76.3488 72.2701 74.2781C67.7035 74.2781 63.1736 74.2781 58.6193 74.2781C58.607 76.373 58.607 78.4195 58.607 80.5508ZM67.5321 80.5508C66.9812 80.0059 66.5527 79.5699 66.1119 79.1461C65.7446 78.7949 65.3039 78.7102 64.8999 79.0371C64.3857 79.473 63.9082 79.9574 63.3083 80.5387C64.6672 80.5387 65.8181 80.5387 66.9812 80.5387C67.1036 80.5508 67.2505 80.5508 67.5321 80.5508Z" fill="white"/>
<path d="M41.234 66.4311C38.4303 66.3706 36.2389 64.1182 36.3001 61.3331C36.3613 58.6448 38.663 56.4651 41.4054 56.5256C44.209 56.5862 46.4005 58.8385 46.3393 61.6237C46.278 64.312 43.9764 66.4917 41.234 66.4311ZM41.3442 64.6147C43.1071 64.6026 44.5151 63.1858 44.5028 61.4421C44.4906 59.7104 43.0337 58.3178 41.2707 58.3421C39.5322 58.3663 38.1365 59.771 38.1488 61.4905C38.1365 63.2221 39.5812 64.6268 41.3442 64.6147Z" fill="white"/>
<path d="M55.1299 56.5259C57.8968 56.5138 60.1617 58.7177 60.174 61.4544C60.1862 64.1912 57.958 66.4193 55.1789 66.4314C52.412 66.4435 50.1471 64.2275 50.1348 61.5029C50.1226 58.7662 52.363 56.538 55.1299 56.5259ZM55.1299 58.3423C53.3669 58.3544 51.959 59.7833 51.9835 61.5271C52.008 63.2345 53.4282 64.615 55.1666 64.615C56.9296 64.615 58.3498 63.2103 58.3498 61.4666C58.3253 59.7228 56.8929 58.3181 55.1299 58.3423Z" fill="white"/>
<path d="M68.9039 66.4311C66.1003 66.3706 63.9088 64.1182 63.97 61.3331C64.0312 58.6448 66.3329 56.4651 69.063 56.5256C71.8667 56.5862 74.0581 58.8385 73.9969 61.6237C73.948 64.312 71.6463 66.4917 68.9039 66.4311ZM68.9773 58.3421C67.2144 58.3542 65.7942 59.771 65.8187 61.5147C65.8309 63.2342 67.2511 64.6147 68.9896 64.6147C70.7526 64.6268 72.185 63.2221 72.185 61.4784C72.1727 59.7346 70.7403 58.3299 68.9773 58.3421Z" fill="white"/>
<path d="M41.3811 68.272C42.3728 68.272 43.3767 68.2599 44.3684 68.272C45.0172 68.2841 45.3845 68.5989 45.409 69.1317C45.4335 69.6888 45.054 70.0642 44.3806 70.0763C42.3483 70.0884 40.316 70.0884 38.2714 70.0763C37.598 70.0763 37.2185 69.7009 37.2308 69.1439C37.243 68.5989 37.6225 68.272 38.3204 68.272C39.3365 68.2599 40.3527 68.272 41.3811 68.272Z" fill="white"/>
<path d="M55.167 68.272C56.1586 68.272 57.1626 68.2599 58.1542 68.272C58.8521 68.2841 59.2194 68.5989 59.2316 69.156C59.2439 69.713 58.8643 70.0763 58.191 70.0884C56.1586 70.1005 54.1263 70.1005 52.0818 70.0884C51.4084 70.0884 51.0411 69.7009 51.0656 69.1439C51.0901 68.611 51.4574 68.2962 52.1062 68.2841C53.1347 68.2599 54.1508 68.272 55.167 68.272Z" fill="white"/>
<path d="M68.9892 68.272C69.9808 68.272 70.9848 68.2599 71.9764 68.272C72.6743 68.2841 73.0538 68.5989 73.0661 69.1439C73.0783 69.713 72.6865 70.0763 71.9642 70.0763C69.9686 70.0884 67.973 70.0884 65.9774 70.0763C65.2551 70.0763 64.8633 69.7009 64.8878 69.1317C64.9123 68.5868 65.2918 68.272 65.9897 68.272C66.9936 68.2599 67.9975 68.272 68.9892 68.272Z" fill="white"/>
<path d="M55.46 44.5376C57.3699 44.5376 59.292 44.5376 61.2019 44.5376C61.4223 44.5376 61.6549 44.5255 61.8753 44.5739C62.3038 44.6708 62.6099 44.9857 62.5242 45.3974C62.4629 45.7243 62.1936 46.0513 61.9243 46.2692C61.7529 46.4025 61.4101 46.354 61.1529 46.354C57.3577 46.354 53.5746 46.354 49.7793 46.354C49.6936 46.354 49.6201 46.354 49.5344 46.354C48.7631 46.3298 48.3591 46.0028 48.3714 45.4095C48.3836 44.8403 48.7754 44.5376 49.5222 44.5376C51.5055 44.5255 53.4767 44.5376 55.46 44.5376Z" fill="white"/>
<path d="M55.1552 37.2721C56.6244 37.2721 58.0935 37.2721 59.5504 37.2721C60.2972 37.2721 60.689 37.5748 60.7012 38.1439C60.7135 38.7373 60.3095 39.0885 59.5504 39.0885C56.6121 39.1006 53.6861 39.0885 50.7478 39.0885C50.6621 39.0885 50.5886 39.0885 50.5029 39.0764C49.9152 39.0037 49.5724 38.6646 49.5969 38.1439C49.6092 37.6232 49.9642 37.2842 50.5641 37.2842C52.0945 37.26 53.6248 37.2721 55.1552 37.2721Z" fill="white"/>
<path d="M49.0082 40.9046C50.4284 40.9046 51.8608 40.8925 53.281 40.9046C53.8442 40.9167 54.187 41.2558 54.2114 41.7401C54.2359 42.2608 53.9054 42.6241 53.3177 42.6847C53.1585 42.7089 52.9871 42.6968 52.828 42.6968C52.2158 42.6968 51.6037 42.6968 50.9916 42.6968C49.0572 42.6968 47.1228 42.6968 45.1884 42.6968C45.0293 42.6968 44.8579 42.6968 44.6987 42.6847C44.0621 42.6362 43.707 42.2972 43.707 41.7644C43.707 41.2315 44.0743 40.8804 44.7232 40.8804C46.1556 40.8925 47.588 40.9046 49.0082 40.9046Z" fill="white"/>
<path d="M61.3607 40.9048C62.7196 40.9048 64.0908 40.9048 65.4498 40.9048C66.1844 40.9048 66.5761 41.2317 66.5761 41.8009C66.5761 42.37 66.1844 42.7091 65.462 42.7212C62.7074 42.7333 59.965 42.7333 57.2103 42.7212C56.4758 42.7212 56.084 42.3821 56.084 41.813C56.084 41.2439 56.4635 40.9169 57.1981 40.9048C58.5938 40.8927 59.9772 40.9048 61.3607 40.9048Z" fill="white"/>
<path d="M43.4002 39.0883C42.4208 39.0883 41.4414 39.0883 40.4742 39.0883C40.2905 39.0883 40.1069 39.0883 39.9232 39.0641C39.3723 38.9914 39.0662 38.6402 39.0785 38.1316C39.0907 37.6352 39.4335 37.284 39.9967 37.284C42.2739 37.2719 44.5511 37.2719 46.8405 37.284C47.3914 37.284 47.7342 37.6473 47.7465 38.1438C47.7587 38.6645 47.4281 39.052 46.8282 39.0641C45.6774 39.1004 44.5388 39.0762 43.4002 39.0883C43.4002 39.0762 43.4002 39.0762 43.4002 39.0883Z" fill="white"/>
<path d="M66.9073 37.272C67.9847 37.272 69.0621 37.2599 70.1395 37.272C70.8373 37.272 71.2168 37.5868 71.2291 38.1439C71.2413 38.713 70.8618 39.0763 70.1395 39.0884C67.9847 39.1005 65.83 39.1005 63.663 39.0884C62.9406 39.0884 62.5489 38.7251 62.5733 38.1439C62.5856 37.5989 62.9651 37.2841 63.663 37.272C64.7526 37.2599 65.83 37.272 66.9073 37.272Z" fill="white"/>
<path d="M34.3912 29.449C33.7301 29.4369 33.2036 28.9041 33.1914 28.2381C33.1914 27.5478 33.7546 27.0029 34.4402 27.0271C35.1013 27.0514 35.6155 27.5963 35.6033 28.2623C35.591 28.9283 35.0523 29.449 34.3912 29.449Z" fill="white"/>
<path d="M38.6869 29.449C38.0257 29.449 37.487 28.9162 37.4748 28.2623C37.4626 27.5721 38.0257 27.0272 38.7113 27.0393C39.3725 27.0514 39.8989 27.5963 39.8867 28.2623C39.8867 28.9162 39.348 29.449 38.6869 29.449Z" fill="white"/>
<path d="M44.1855 28.226C44.1977 28.892 43.6713 29.4248 43.0102 29.449C42.3246 29.4611 41.7614 28.9162 41.7736 28.226C41.7859 27.56 42.3246 27.0393 42.9857 27.0393C43.6346 27.0272 44.1732 27.56 44.1855 28.226Z" fill="white"/>
</g>
<defs>
<clipPath id="clip0_36_8842">
<rect width="50" height="62" fill="white" transform="translate(30.1543 24)"/>
</clipPath>
</defs>
</svg>
