<svg width="320" height="88" viewBox="0 0 320 88" fill="none" xmlns="http://www.w3.org/2000/svg">
<path d="M317.996 31.047C279.647 24.032 242.343 18.6233 203.218 18.0023C176.555 17.5791 149.563 17.3101 123.097 21.0126C101.479 24.0369 80.0873 29.0859 58.723 33.517C43.7842 36.6154 28.1642 38.5813 13.7227 43.7057C11.4318 44.5186 2.367 47.7309 1.83578 50.6526C-1.19033 67.2962 36.6522 74.4176 46.5274 76.2789C98.2742 86.0322 151.271 86.0045 203.758 86.0045C224.677 86.0045 246.098 87.288 266.975 85.6957C278.592 84.8097 293.453 83.0547 304.334 79.0576C317.798 74.1114 306.188 52.5635 301.632 45.4039C279.486 10.6026 250.06 6.75758 211.999 2" stroke="#F5EEE8" stroke-width="3" stroke-linecap="round"/>
</svg>
